<?xml version="1.0" encoding="UTF-8"?>
<svg version="1.1" xmlns="http://www.w3.org/2000/svg" width="916" height="718">
<path d="M0 0 C4.04499084 3.53063565 6.71252341 7.16850739 9 12 C9.04898437 11.11957031 9.09796875 10.23914063 9.1484375 9.33203125 C9.22320313 8.17058594 9.29796875 7.00914062 9.375 5.8125 C9.44460938 4.66394531 9.51421875 3.51539063 9.5859375 2.33203125 C10.0042932 -1.03454814 10.50575584 -4.50575584 13 -7 C17.19682014 -7.2940305 21.40016295 -7.31447981 25.60595703 -7.35009766 C27.01400518 -7.36645167 28.42197777 -7.39346006 29.82958984 -7.43212891 C41.99947911 -7.76432384 53.4628361 -5.80573747 63.2109375 2.1171875 C66.69525447 5.78408876 72 11.73798694 72 17 C72.90621094 16.855625 73.81242187 16.71125 74.74609375 16.5625 C88.49766822 14.46702199 88.49766822 14.46702199 95 15 C97.57069963 17.00138944 97.95302693 17.67789898 98.4375 21 C98 24 98 24 96.47265625 25.55078125 C93.15537197 27.49503475 89.70838931 28.32422459 86 29.1875 C84.93265625 29.45336914 84.93265625 29.45336914 83.84375 29.72460938 C80.43810089 30.54742945 77.52419124 31 74 31 C73.87044922 31.92619141 73.87044922 31.92619141 73.73828125 32.87109375 C72.0976722 42.75990245 68.00639786 50.76589216 60 57 C49.43763856 63.60366544 39.35563879 64.31243663 27.125 64.1875 C25.90296875 64.18685547 24.6809375 64.18621094 23.421875 64.18554688 C14.42254464 64.14084821 14.42254464 64.14084821 11 63 C10.34 56.73 9.68 50.46 9 44 C7.515 46.475 7.515 46.475 6 49 C-0.33456995 57.36965803 -7.29066945 62.83538862 -17.7578125 64.71875 C-29.13668876 66.14606549 -38.96605294 63.5312013 -48.484375 57.0859375 C-54.8503236 51.80734037 -58.69859123 44.8518652 -61 37 C-61 35.68 -61 34.36 -61 33 C-62.32 34.32 -63.64 35.64 -65 37 C-64.69707031 37.60996826 -64.39414062 38.21993652 -64.08203125 38.84838867 C-62.71111802 41.62316978 -61.35546156 44.4051404 -60 47.1875 C-59.28457031 48.62706055 -59.28457031 48.62706055 -58.5546875 50.09570312 C-58.10351562 51.02705078 -57.65234375 51.95839844 -57.1875 52.91796875 C-56.55908203 54.19837036 -56.55908203 54.19837036 -55.91796875 55.50463867 C-54.93522792 58.17607325 -54.82317711 60.17746461 -55 63 C-57.92460429 64.46230215 -60.55652824 64.20908727 -63.8125 64.25 C-65.03582031 64.27578125 -66.25914062 64.3015625 -67.51953125 64.328125 C-71.43078924 63.95938687 -73.04225735 63.57433157 -76 61 C-77.71779658 58.26231947 -79.01908608 55.39492652 -80.3125 52.4375 C-80.67150391 51.65697266 -81.03050781 50.87644531 -81.40039062 50.07226562 C-84 44.33331845 -84 44.33331845 -84 42 C-86.33294775 41.95758277 -88.66702567 41.95907063 -91 42 C-92.58403524 43.58403524 -92.21974935 45.2771638 -92.31640625 47.47265625 C-92.35830078 48.37177734 -92.40019531 49.27089844 -92.44335938 50.19726562 C-92.48267578 51.14279297 -92.52199219 52.08832031 -92.5625 53.0625 C-92.62727539 54.4865918 -92.62727539 54.4865918 -92.69335938 55.93945312 C-92.79979276 58.29281353 -92.90181008 60.64628354 -93 63 C-95.8194068 64.4097034 -98.23267226 64.16984647 -101.375 64.1875 C-102.51710938 64.20167969 -103.65921875 64.21585937 -104.8359375 64.23046875 C-108 64 -108 64 -112 62 C-112.33 53.09 -112.66 44.18 -113 35 C-115.64 36.65 -118.28 38.3 -121 40 C-128.33736426 42.29977089 -135.35365453 42.21272677 -143 42 C-142.98428955 42.59538574 -142.9685791 43.19077148 -142.95239258 43.80419922 C-142.89014199 46.49437003 -142.85104217 49.18438957 -142.8125 51.875 C-142.78736328 52.81214844 -142.76222656 53.74929688 -142.73632812 54.71484375 C-142.72666016 55.61074219 -142.71699219 56.50664062 -142.70703125 57.4296875 C-142.6913208 58.25710449 -142.67561035 59.08452148 -142.65942383 59.93701172 C-142.77181396 60.61779785 -142.8842041 61.29858398 -143 62 C-146.57121718 64.38081145 -148.26674633 64.26906871 -152.5 64.25 C-153.6446875 64.25515625 -154.789375 64.2603125 -155.96875 64.265625 C-159 64 -159 64 -162 62 C-162.43237305 59.20263672 -162.43237305 59.20263672 -162.51171875 55.6796875 C-162.54716797 54.42285156 -162.58261719 53.16601562 -162.61914062 51.87109375 C-162.64169922 50.55238281 -162.66425781 49.23367188 -162.6875 47.875 C-162.72066529 46.53512241 -162.75515422 45.19527689 -162.79101562 43.85546875 C-162.87373327 40.5703967 -162.94280693 37.28559968 -163 34 C-176.54757329 34.62368632 -176.54757329 34.62368632 -189 39 C-190.47207418 41.53805893 -191.19447309 43.27279126 -192 46 C-194.73287765 52.87470556 -197.54155671 59.44733948 -203.625 63.9375 C-209.77348485 65.87313412 -215.57109753 66.08433146 -221.5 63.4375 C-225.67688454 59.36503757 -226.97028209 55.87222805 -227.0625 50.0625 C-225.94347254 44.03607088 -222.43798779 39.73538658 -217.51953125 36.234375 C-215.04955148 34.73122631 -212.56683834 33.33001194 -210 32 C-208.95199219 31.42378906 -208.95199219 31.42378906 -207.8828125 30.8359375 C-206 30 -206 30 -203 30 C-203.33 25.38 -203.66 20.76 -204 16 C-204.66 16 -205.32 16 -206 16 C-206.2693335 16.74096924 -206.53866699 17.48193848 -206.81616211 18.24536133 C-207.95526045 20.89589681 -209.1738881 22.81095005 -210.94140625 25.07421875 C-211.52075928 25.81945801 -212.1001123 26.56469727 -212.69702148 27.33251953 C-213.62043335 28.49823486 -213.62043335 28.49823486 -214.5625 29.6875 C-215.19293213 30.4904248 -215.82336426 31.29334961 -216.47290039 32.12060547 C-221.09945167 37.96958823 -225.91760384 43.54225721 -231 49 C-232.25597128 50.41137543 -233.50626613 51.82782894 -234.75 53.25 C-235.31074219 53.889375 -235.87148438 54.52875 -236.44921875 55.1875 C-237.86625581 56.84368437 -239.21425586 58.53794395 -240.5625 60.25 C-243.79142019 63.89288432 -246.78029048 66.63865194 -251.6875 67.4375 C-254 67 -254 67 -255.875 65.9375 C-257 64 -257 64 -257 60.625 C-255.818348 56.34151151 -254.29023144 54.90764639 -251 52 C-250.34 51.175 -249.68 50.35 -249 49.5 C-247 47 -247 47 -244.625 44.640625 C-234.1533659 34.10665974 -225.44220738 21.3906387 -216.640625 9.45703125 C-216.10219971 8.72959717 -215.56377441 8.00216309 -215.0090332 7.25268555 C-213.98676121 5.86864012 -212.96939186 4.48095549 -211.95776367 3.08911133 C-207.46335802 -2.99413848 -207.46335802 -2.99413848 -204 -5 C-199.83409652 -5.6059496 -197.78247045 -5.4868705 -194.1875 -3.25 C-189.24733738 4.08967018 -189.64560027 14.36934372 -189 23 C-188.05640625 22.855625 -187.1128125 22.71125 -186.140625 22.5625 C-184.85671875 22.376875 -183.5728125 22.19125 -182.25 22 C-180.99703125 21.814375 -179.7440625 21.62875 -178.453125 21.4375 C-172.98517901 20.7728304 -167.49839967 20.91721356 -162 21 C-162.01047363 20.29391602 -162.02094727 19.58783203 -162.03173828 18.86035156 C-162.0733479 15.65693734 -162.09934204 12.45358004 -162.125 9.25 C-162.14175781 8.13882812 -162.15851563 7.02765625 -162.17578125 5.8828125 C-162.18222656 4.81289063 -162.18867187 3.74296875 -162.1953125 2.640625 C-162.20578613 1.65610352 -162.21625977 0.67158203 -162.22705078 -0.34277344 C-161.99489618 -3.05973111 -161.39036273 -4.68112513 -160 -7 C-155.6075369 -7.07482575 -151.21542328 -7.12891683 -146.82250977 -7.16479492 C-145.33188402 -7.17977042 -143.84130149 -7.20015819 -142.35083008 -7.22631836 C-130.69192439 -7.4256493 -122.03920775 -6.19440478 -112 0 C-112.061875 -0.78375 -112.12375 -1.5675 -112.1875 -2.375 C-112.125625 -3.24125 -112.06375 -4.1075 -112 -5 C-107.0162472 -8.32250187 -101.00852981 -7.37185806 -95.16894531 -7.37060547 C-92.90351285 -7.37494538 -90.64008342 -7.41117088 -88.375 -7.44921875 C-78.34743452 -7.52874213 -70.25931041 -6.58670164 -62.625 0.5 C-61.99851562 1.0671875 -61.37203125 1.634375 -60.7265625 2.21875 C-58.9622854 4.03890918 -57.47296791 5.93965224 -56 8 C-55.64550781 7.50371094 -55.29101562 7.00742187 -54.92578125 6.49609375 C-40.84505136 -11.47132671 -17.77029421 -12.4588387 0 0 Z M-93 11 C-93.24733137 15.14276875 -93.24733137 15.14276875 -92 19 C-86.72 19 -81.44 19 -76 19 C-75.67 18.34 -75.34 17.68 -75 17 C-76.31177182 14.08495151 -77.38519167 12.37973456 -80.125 10.6875 C-83.46990758 9.8876308 -90.32151266 8.32151266 -93 11 Z M-143 11 C-143 13.64 -143 16.28 -143 19 C-137.72 19 -132.44 19 -127 19 C-126.67 17.68 -126.34 16.36 -126 15 C-127.43399305 12.60591109 -127.43399305 12.60591109 -130 11 C-133.27400478 10.51736211 -133.27400478 10.51736211 -136.75 10.75 C-137.92046875 10.78609375 -139.0909375 10.8221875 -140.296875 10.859375 C-141.18890625 10.90578125 -142.0809375 10.9521875 -143 11 Z M-39 18 C-39 18.33 -39 18.66 -39 19 C-29.43 19 -19.86 19 -10 19 C-14.94504534 12.58865504 -14.94504534 12.58865504 -21.734375 10.55859375 C-29.66331525 10.24020366 -33.9225867 11.77270192 -39 18 Z M30 12 C28.48534976 14.53915739 28.48534976 14.53915739 30 20 C37.26 20 44.52 20 52 20 C50.09861468 16.19722936 49.42744325 15.11695025 46 13 C42.57093722 11.86210473 39.34284751 11.89844731 35.75 11.9375 C34.67234375 11.94652344 33.5946875 11.95554687 32.484375 11.96484375 C31.25460937 11.98224609 31.25460937 11.98224609 30 12 Z M-41 33 C-39.16908601 37.94682725 -36.76437514 42.25749857 -32.171875 45.15234375 C-27.92563883 46.8095978 -23.47024428 46.52552944 -19 46 C-14.54853749 43.81473658 -11.81114855 41.0605479 -9 37 C-8.67 36.01 -8.34 35.02 -8 34 C-9.12427635 32.64894855 -9.12427635 32.64894855 -12.05102539 32.88647461 C-13.39991271 32.88663366 -14.74880614 32.89232388 -16.09765625 32.90234375 C-16.80651474 32.9037587 -17.51537323 32.90517365 -18.24571228 32.90663147 C-20.51801712 32.91224557 -22.79022475 32.92480037 -25.0625 32.9375 C-26.59960796 32.94251319 -28.13671745 32.94707641 -29.67382812 32.95117188 C-33.44925642 32.96221958 -37.22461171 32.97949359 -41 33 Z M30 33 C28.96840374 36.09478879 29.02517138 37.52631393 29.4375 40.6875 C29.53933594 41.49574219 29.64117188 42.30398438 29.74609375 43.13671875 C29.82988281 43.75160156 29.91367187 44.36648438 30 45 C32.06183633 45.08150744 34.12461349 45.1394194 36.1875 45.1875 C37.91033203 45.23970703 37.91033203 45.23970703 39.66796875 45.29296875 C45.57710777 44.77340788 49.2321397 41.41377921 53 37 C53 35.68 53 34.36 53 33 C45.41 33 37.82 33 30 33 Z M-210.0625 47.875 C-212.22458462 49.76703874 -212.22458462 49.76703874 -212 52 C-211.01 51.67 -210.02 51.34 -209 51 C-207.78130071 48.49552484 -207.78130071 48.49552484 -207 46 C-208.3412413 45.88788787 -208.3412413 45.88788787 -210.0625 47.875 Z " fill="#F2F2F1" transform="translate(721,321)"/>
<path d="M0 0 C0.7578125 2.05078125 0.7578125 2.05078125 1 5 C-0.27604331 7.57266797 -1.5580096 9.80757104 -3.125 12.1875 C-3.96982948 13.53496808 -4.81228588 14.88392698 -5.65234375 16.234375 C-6.06081543 16.88470703 -6.46928711 17.53503906 -6.89013672 18.20507812 C-17.36633597 35.14766872 -25.52896497 58.09446846 -21 78 C-13.78528814 78.75153249 -9.66397099 77.45260147 -4 73 C-3.27941406 72.4534375 -2.55882812 71.906875 -1.81640625 71.34375 C7.30871278 63.87918123 13.02028288 53.92977751 18.625 43.75 C24.32716662 33.40221232 30.66195145 23.74767234 42 19 C44.21875 18.734375 44.21875 18.734375 46.5 18.75 C47.2528125 18.74484375 48.005625 18.7396875 48.78125 18.734375 C51.2747756 19.03289567 52.87382818 19.67633121 55 21 C56.97309248 24.28848747 57.37532617 27.14051679 56.66015625 30.921875 C52.95587699 42.5826831 44.91511881 51.95835974 34.34375 57.84765625 C31.62755287 59.18311984 28.92843507 60.22935919 26 61 C25.61041465 68.74338636 25.61041465 68.74338636 28 76 C38.13464261 76.97033812 44.71837904 73.65782215 52.6875 67.625 C54.47274454 66.10004468 56.24157669 64.55580663 58 63 C58.59570801 62.50806152 59.19141602 62.01612305 59.80517578 61.50927734 C70.34986304 52.72952396 74.98299131 45.08718171 77.82421875 31.65234375 C78.84600425 26.94911133 80.54754584 23.45245416 84 20 C86.9375 19.8125 86.9375 19.8125 90 20 C92.1385485 22.1385485 92.42655063 23.13275314 93 26 C93.78310547 24.89205078 93.78310547 24.89205078 94.58203125 23.76171875 C110.48084627 1.84864095 110.48084627 1.84864095 121.16015625 -0.46875 C125.00604174 -0.53192676 126.79712157 -0.15436402 129.875 2.1875 C135.70285322 9.90083514 134.77055272 18.96775337 133.59863281 28.14208984 C132.53049808 35.450104 131.29789071 42.72956831 130 50 C130.99797607 49.36118896 130.99797607 49.36118896 132.01611328 48.70947266 C132.90024902 48.1582373 133.78438477 47.60700195 134.6953125 47.0390625 C135.56687988 46.48943848 136.43844727 45.93981445 137.33642578 45.37353516 C141.24606299 43.35743809 144.72906585 42.97148933 149 44 C152.2993947 46.30957629 153.29138665 48.14127823 154 52 C154.10983462 53.86108668 154.21677193 55.72256457 154.29003906 57.58544922 C154.54908896 67.67249969 154.54908896 67.67249969 158 77 C160.18995358 78.9766906 160.18995358 78.9766906 163 79 C169.81373573 76.1747925 174.42124212 71.41465506 178 65 C179.36402346 61.55098149 180.26773246 57.9972769 181.20092773 54.4128418 C184.48395145 41.97823409 191.93228663 28.89313674 203.01953125 21.6875 C205.42780264 20.85149257 207.45208728 20.69915204 210 20.6875 C211.2684375 20.66236328 211.2684375 20.66236328 212.5625 20.63671875 C215.51500566 21.07675565 216.85242709 21.95309457 219 24 C220.85816433 29.57449299 220.30341188 34.54113924 218.11328125 39.88671875 C212.45449374 50.62848731 203.42306115 59.12777588 192 63 C191.91885894 64.77007714 191.86074495 66.54122098 191.8125 68.3125 C191.77769531 69.29863281 191.74289062 70.28476562 191.70703125 71.30078125 C191.78505065 73.99702192 191.78505065 73.99702192 193.26171875 75.84765625 C196.07117369 77.7101039 198.14372924 77.24572014 201.3828125 76.7890625 C205.61968101 75.51167826 209.00802127 73.10268607 212.6171875 70.59375 C215 69 215 69 218 68 C218.69138443 66.67931465 219.3546869 65.34379806 220 64 C221.18263997 62.70589282 222.41706632 61.45803517 223.6875 60.25 C230.44102958 53.61903901 235.62069383 47.93312241 239 39 C239.68295351 37.20659536 240.37046675 35.41492058 241.0625 33.625 C241.36285156 32.81289063 241.66320312 32.00078125 241.97265625 31.1640625 C243.05154062 28.89143155 244.04846987 27.57413499 246 26 C248.5 25.5625 248.5 25.5625 251 26 C253.44043211 28.38354558 253.98937864 29.56843745 254.07421875 33.015625 C253.94660156 34.08296875 253.81898438 35.1503125 253.6875 36.25 C253.50767578 37.86648438 253.50767578 37.86648438 253.32421875 39.515625 C253.16373047 40.74539063 253.16373047 40.74539063 253 42 C254.35491884 40.50067938 255.70888678 39.00049946 257.0625 37.5 C257.8875 36.58992188 258.7125 35.67984375 259.5625 34.7421875 C261.03260846 33.08831549 262.47852571 31.41181215 263.875 29.6953125 C267.65052214 25.06330617 271.20349768 21.80284915 277 20 C281.13996 19.586004 284.63414839 19.3554023 288 22 C292.05415017 27.79164311 291.63857757 34.13298491 290.52636719 40.86816406 C289.67579236 44.89600424 288.73313141 48.89836841 287.77734375 52.90234375 C286.16518366 60.04190988 285.70770534 66.68776186 286 74 C289.57657022 72.64560471 291.86908162 71.48595328 294.5 68.6875 C295.098125 68.07003906 295.69625 67.45257813 296.3125 66.81640625 C297.73920476 65.2807171 299.12455367 63.70676327 300.5 62.125 C303.69724666 59.40734034 305.83715367 59 310 59 C312 60 312 60 313 62 C312.79891763 67.96065594 310.85155077 71.04486725 306.75 75.125 C306.27175781 75.62386719 305.79351562 76.12273437 305.30078125 76.63671875 C304.34651152 77.62719383 303.38366642 78.60948405 302.41210938 79.58300781 C301.0508278 80.94899645 299.72001072 82.34513844 298.390625 83.7421875 C293.87551462 88.00645842 290.46374677 88.40739528 284.40234375 88.23828125 C281.08314397 87.90905981 279.44549105 87.30163863 277 85 C273.52164472 79.61893425 272.36828649 74.96670893 272.5625 68.625 C272.5742627 67.85841064 272.58602539 67.09182129 272.59814453 66.30200195 C272.88840976 56.32641811 273.85982187 45.1623942 278 36 C277.38125 36.495 276.7625 36.99 276.125 37.5 C274 39 274 39 272 39 C271.7421875 39.57234375 271.484375 40.1446875 271.21875 40.734375 C269.88551041 43.21283322 268.32624646 45.10939964 266.5 47.25 C259.83843543 55.46272311 254.53381912 64.60289983 249.24609375 73.73828125 C248.79669434 74.51292725 248.34729492 75.28757324 247.88427734 76.08569336 C247.01937311 77.58369983 246.16133062 79.08569433 245.31103516 80.59204102 C243.43028256 83.86374261 242.18787376 85.87475083 239 88 C236.23979004 88.37167184 233.81147524 88.17850636 231 88 C229 86 229 86 228.8046875 82.9609375 C228.83949219 81.18589844 228.83949219 81.18589844 228.875 79.375 C228.89304687 78.18648438 228.91109375 76.99796875 228.9296875 75.7734375 C228.96449219 74.40058594 228.96449219 74.40058594 229 73 C228.67 73.33 228.34 73.66 228 74 C219.15352735 82.38451586 209.13344489 89.61760585 196.515625 90.09375 C191.33507553 89.74606212 188.16646375 88.19751869 184 85 C182.67780555 84.31150595 181.34627619 83.64012706 180 83 C179.38511719 83.42152344 178.77023437 83.84304688 178.13671875 84.27734375 C177.32847656 84.82519531 176.52023437 85.37304688 175.6875 85.9375 C174.48673828 86.75541016 174.48673828 86.75541016 173.26171875 87.58984375 C167.94725841 90.90335011 162.06322875 90.6754374 156 90 C151.47748231 88.28400924 148.95832036 85.374067 146.6875 81.1875 C143.38911391 73.63222247 142.56901565 66.14590828 142 58 C138.97913439 59.3385602 137.0370605 60.76851864 134.8359375 63.22265625 C133.98902344 64.15368164 133.98902344 64.15368164 133.125 65.10351562 C132.5475 65.74998047 131.97 66.39644531 131.375 67.0625 C130.21873181 68.34738392 129.05999168 69.63004895 127.8984375 70.91015625 C127.38974121 71.47871338 126.88104492 72.04727051 126.35693359 72.63305664 C124.27287873 74.73248506 123.03903083 74.99584778 120.0625 75.3125 C117 75 117 75 115.27734375 73.4375 C113.51023564 70.06540379 113.96605597 67.32053 114.5 63.6875 C114.59603516 62.95257324 114.69207031 62.21764648 114.79101562 61.46044922 C115.8287484 54.11894498 117.51288213 46.92490988 119.1706543 39.70361328 C121.22600559 30.52555228 122.26776032 21.36611048 123 12 C121.824375 12.7425 121.824375 12.7425 120.625 13.5 C118 15 118 15 116 15 C115.731875 15.5775 115.46375 16.155 115.1875 16.75 C113.97070811 19.05550043 112.69666121 21.02056192 111 23 C110.34 23 109.68 23 109 23 C108.59152832 24.10625732 108.59152832 24.10625732 108.17480469 25.23486328 C107.06392879 27.84953087 105.82648302 29.92225935 104.203125 32.2421875 C101.13598389 36.74623775 98.382367 41.35544927 95.75 46.125 C95.28327881 46.96885254 94.81655762 47.81270508 94.33569336 48.68212891 C90.18472339 56.35180653 86.68108945 64.25408125 83.34863281 72.30908203 C78.27518851 84.48320766 78.27518851 84.48320766 73 88 C69.9375 87.8125 69.9375 87.8125 67 87 C64.72391767 83.5858765 64.83511023 82.84289339 65.3125 78.9375 C65.41175781 78.05964844 65.51101562 77.18179688 65.61328125 76.27734375 C66 74 66 74 67 72 C66.39414063 72.50789063 65.78828125 73.01578125 65.1640625 73.5390625 C54.53848093 82.26838643 43.70755394 89.90188595 29.38671875 89.33984375 C24.42706342 88.63364078 20.55090505 87.0323565 17.46484375 82.98828125 C16.60207226 81.58722084 15.77903802 80.16049473 15.0078125 78.70703125 C14.10604017 76.82683288 14.10604017 76.82683288 12 76 C11.505 77.485 11.505 77.485 11 79 C9.04936327 80.59758031 7.14238606 82.02877143 5.0625 83.4375 C4.4749292 83.83638428 3.8873584 84.23526855 3.28198242 84.64624023 C-4.52455888 89.8127859 -12.4095304 93.74229481 -22 92 C-27.47523714 90.09181753 -30.27976699 87.08766034 -32.9375 82 C-40.03811039 66.59528594 -34.18363439 47.59939483 -28.73828125 32.4375 C-15.24760103 -3.10120699 -15.24760103 -3.10120699 0 0 Z M91 27 C92 29 92 29 92 29 Z M42 32 C36.04888959 36.68748839 36.04888959 36.68748839 32 43 C32.33 43.66 32.66 44.32 33 45 C36.3 41.37 39.6 37.74 43 34 C42.67 33.34 42.34 32.68 42 32 Z M206 34 C204.45833358 35.37485532 204.45833358 35.37485532 203 37 C203 37.66 203 38.32 203 39 C202.34 39 201.68 39 201 39 C199.2463436 41.33942344 199.2463436 41.33942344 198 44 C198.33 44.66 198.66 45.32 199 46 C201.64 42.7 204.28 39.4 207 36 C206.67 35.34 206.34 34.68 206 34 Z M251 43 C252 45 252 45 252 45 Z " fill="#F2F2F1" transform="translate(141,298)"/>
<path d="M0 0 C3.07469523 1.70251719 5.40613254 3.81226508 7 7 C7.54016597 11.50728651 7.60322525 14.94994123 5.3125 18.9375 C2.31218961 21.61345251 0.17173763 22.96468719 -3.921875 23.03125 C-8.7174548 22.67068009 -11.51325344 21.48674656 -15 18 C-16.74221711 14.51556578 -16.58675154 10.80112955 -16 7 C-12.28071838 0.28308841 -7.23874286 -1.11738984 0 0 Z " fill="#F2F2F1" transform="translate(816,361)"/>
<path d="M0 0 C2.51368878 3.77053317 2.10551674 5.47950723 1.75 9.9375 C1.66234375 11.16339844 1.5746875 12.38929688 1.484375 13.65234375 C1.05316556 16.6325574 0.6755176 18.53144383 -1 21 C-3.3125 21.9375 -3.3125 21.9375 -6 22 C-8.75 20.75 -8.75 20.75 -11 19 C-12.94924757 13.15225729 -12.18875063 7.69075164 -10 2 C-6.87570308 -1.57062505 -4.39957587 -1.33900135 0 0 Z " fill="#F3F3F3" transform="translate(468,319)"/>
<path d="M0 0 C0.66 0 1.32 0 2 0 C0.46920333 3.44429252 -1.61654706 6.09516673 -4 9 C-4.66 9.99 -5.32 10.98 -6 12 C-5.43958106 7.23643901 -3.41302403 3.41302403 0 0 Z " fill="#F9F9F7" transform="translate(501,359)"/>
<path d="M0 0 C0.66 0.33 1.32 0.66 2 1 C1.07213211 2.00894372 0.13231567 3.00690907 -0.8125 4 C-1.59560547 4.8353125 -1.59560547 4.8353125 -2.39453125 5.6875 C-4 7 -4 7 -7 7 C-6.67 5.02 -6.34 3.04 -6 1 C-5.34 1.66 -4.68 2.32 -4 3 C-2.68 2.01 -1.36 1.02 0 0 Z " fill="#F9F9F8" transform="translate(275,345)"/>
</svg>
