<?xml version="1.0" encoding="UTF-8"?>
<svg version="1.1" xmlns="http://www.w3.org/2000/svg" viewBox="53 295 729 125">
<path d="M0 0 C2.39164868 2.62529109 3.7603784 5.18249226 5.19921875 8.4140625 C5.25980469 7.12628906 5.32039063 5.83851563 5.3828125 4.51171875 C5.46720122 2.83332091 5.55185005 1.15493614 5.63671875 -0.5234375 C5.69569336 -1.79864258 5.69569336 -1.79864258 5.75585938 -3.09960938 C5.79775391 -3.90849609 5.83964844 -4.71738281 5.8828125 -5.55078125 C5.91947021 -6.299646 5.95612793 -7.04851074 5.99389648 -7.82006836 C6.19921875 -9.5859375 6.19921875 -9.5859375 7.19921875 -10.5859375 C9.59168272 -10.724324 11.95311835 -10.79909475 14.34765625 -10.82421875 C15.07481842 -10.8322905 15.80198059 -10.84036224 16.55117798 -10.84867859 C18.09968672 -10.86254685 19.64822638 -10.87325667 21.19677734 -10.88110352 C23.53024817 -10.89811691 25.86222621 -10.94194742 28.1953125 -10.98632812 C40.58547438 -11.11612674 50.7549723 -9.24316341 60.19921875 -0.5859375 C64.5706047 3.72583864 66.89956136 7.75596117 69.19921875 13.4140625 C70.35679687 13.18589844 71.514375 12.95773437 72.70703125 12.72265625 C74.24599241 12.43175505 75.78506074 12.14142038 77.32421875 11.8515625 C78.46503906 11.62436523 78.46503906 11.62436523 79.62890625 11.39257812 C84.08365654 10.5669132 87.74182393 10.1743919 92.19921875 11.4140625 C94.19921875 13.4140625 94.19921875 13.4140625 94.51171875 16.8515625 C94.19921875 20.4140625 94.19921875 20.4140625 93.171875 22 C90.18436068 24.14154492 86.84851743 24.78557623 83.32421875 25.6015625 C82.61652344 25.77880859 81.90882813 25.95605469 81.1796875 26.13867188 C77.45769541 27.03624725 74.0297802 27.63187874 70.19921875 27.4140625 C70.1734375 27.9709375 70.14765625 28.5278125 70.12109375 29.1015625 C69.39489912 38.8721812 65.24217509 45.68861649 58.19921875 52.4140625 C48.63491174 60.23572035 37.08944748 60.87376928 25.23461914 60.6953125 C23.10871126 60.6636453 20.98354428 60.65427783 18.85742188 60.6484375 C8.52854462 60.57872544 8.52854462 60.57872544 6.19921875 59.4140625 C5.86921875 53.4740625 5.53921875 47.5340625 5.19921875 41.4140625 C4.06484375 43.1053125 2.93046875 44.7965625 1.76171875 46.5390625 C-4.32618586 54.86312188 -11.57288765 59.66070931 -21.80078125 61.4140625 C-32.53814431 62.36614395 -42.1082633 61.13100819 -50.80078125 54.4140625 C-51.79078125 53.7128125 -52.78078125 53.0115625 -53.80078125 52.2890625 C-60.27877781 46.7462098 -63.58923202 38.44547814 -65.80078125 30.4140625 C-66.79078125 31.4040625 -66.79078125 31.4040625 -67.80078125 32.4140625 C-67.55583861 38.29268581 -63.61447214 43.77646254 -60.86328125 48.8203125 C-60.45851563 49.59375 -60.05375 50.3671875 -59.63671875 51.1640625 C-59.2607959 51.86015625 -58.88487305 52.55625 -58.49755859 53.2734375 C-57.80078125 55.4140625 -57.80078125 55.4140625 -58.80078125 60.4140625 C-65.07078125 60.4140625 -71.34078125 60.4140625 -77.80078125 60.4140625 C-79.44686414 57.28919372 -81.09265875 54.16417372 -82.73828125 51.0390625 C-83.44114258 49.70488281 -83.44114258 49.70488281 -84.15820312 48.34375 C-84.60615234 47.49296875 -85.05410156 46.6421875 -85.515625 45.765625 C-85.9293335 44.98010254 -86.34304199 44.19458008 -86.76928711 43.38525391 C-87.45866749 42.06784391 -88.13582796 40.74396908 -88.80078125 39.4140625 C-91.12234722 39.00677022 -93.45765995 38.66967573 -95.80078125 38.4140625 C-95.79030762 39.00944824 -95.77983398 39.60483398 -95.76904297 40.21826172 C-95.72754176 42.90848593 -95.70147421 45.59864287 -95.67578125 48.2890625 C-95.65902344 49.22621094 -95.64226562 50.16335938 -95.625 51.12890625 C-95.61855469 52.02480469 -95.61210938 52.92070312 -95.60546875 53.84375 C-95.59499512 54.67116699 -95.58452148 55.49858398 -95.57373047 56.35107422 C-95.80078125 58.4140625 -95.80078125 58.4140625 -97.80078125 60.4140625 C-100.69210302 60.58585302 -103.4752019 60.6463572 -106.36328125 60.6015625 C-107.15669922 60.60091797 -107.95011719 60.60027344 -108.76757812 60.59960938 C-114.66052603 60.55431772 -114.66052603 60.55431772 -115.80078125 59.4140625 C-115.95920775 57.3432153 -116.05202547 55.26728221 -116.1171875 53.19140625 C-116.1800293 51.30131836 -116.1800293 51.30131836 -116.24414062 49.37304688 C-116.28395721 48.03255514 -116.32366939 46.6920603 -116.36328125 45.3515625 C-116.40646167 44.00714727 -116.45007581 42.6627459 -116.49414062 41.31835938 C-116.60063483 38.0170391 -116.70264585 34.71564014 -116.80078125 31.4140625 C-117.55866943 32.03821045 -118.31655762 32.6623584 -119.09741211 33.30541992 C-125.10098749 37.98824125 -130.40868364 38.84651049 -137.73828125 38.6015625 C-138.90713867 38.58125977 -138.90713867 38.58125977 -140.09960938 38.56054688 C-142.00030529 38.52556474 -143.90063959 38.47177209 -145.80078125 38.4140625 C-145.79030762 39.00944824 -145.77983398 39.60483398 -145.76904297 40.21826172 C-145.72754176 42.90848593 -145.70147421 45.59864287 -145.67578125 48.2890625 C-145.65902344 49.22621094 -145.64226562 50.16335938 -145.625 51.12890625 C-145.61855469 52.02480469 -145.61210938 52.92070312 -145.60546875 53.84375 C-145.59499512 54.67116699 -145.58452148 55.49858398 -145.57373047 56.35107422 C-145.80078125 58.4140625 -145.80078125 58.4140625 -147.80078125 60.4140625 C-150.69210302 60.58585302 -153.4752019 60.6463572 -156.36328125 60.6015625 C-157.15669922 60.60091797 -157.95011719 60.60027344 -158.76757812 60.59960938 C-164.66052603 60.55431772 -164.66052603 60.55431772 -165.80078125 59.4140625 C-165.8885373 57.26847423 -165.90773344 55.12001829 -165.8984375 52.97265625 C-165.89360352 51.01489258 -165.89360352 51.01489258 -165.88867188 49.01757812 C-165.88031526 47.6289056 -165.8718503 46.24023373 -165.86328125 44.8515625 C-165.85826791 43.45898594 -165.85370472 42.06640769 -165.84960938 40.67382812 C-165.83777559 37.2538638 -165.82129005 33.83398406 -165.80078125 30.4140625 C-168.96965444 30.83642803 -172.13527082 31.27974537 -175.30078125 31.7265625 C-176.63109375 31.90348633 -176.63109375 31.90348633 -177.98828125 32.08398438 C-183.62194264 32.891752 -188.70759342 33.80731282 -193.80078125 36.4140625 C-195.36023135 39.22093021 -195.36023135 39.22093021 -195.86328125 42.5390625 C-197.85657305 50.38109208 -201.33604559 56.40615909 -208.17578125 60.9765625 C-212.59182452 62.72775207 -216.11645502 63.27584201 -220.80078125 62.4140625 C-225.44503991 59.91992359 -229.11453147 57.47281183 -230.80078125 52.4140625 C-230.93786972 48.09577557 -230.89485329 44.5812058 -229.80078125 40.4140625 C-230.56261719 41.32027344 -231.32445312 42.22648437 -232.109375 43.16015625 C-236.85552943 48.77605312 -241.62005646 54.38564297 -246.67578125 59.7265625 C-247.33320313 60.42394531 -247.990625 61.12132812 -248.66796875 61.83984375 C-251.37605509 63.83866938 -253.47090517 64.17557138 -256.80078125 64.4140625 C-259.17578125 63.4140625 -259.17578125 63.4140625 -260.80078125 61.4140625 C-261.34722686 57.06851884 -261.27025288 55.07834292 -258.7109375 51.45703125 C-257.77852252 50.48874132 -256.8282232 49.53744184 -255.86328125 48.6015625 C-254.84849118 47.55774563 -253.83417503 46.51346782 -252.8203125 45.46875 C-252.31064941 44.95538086 -251.80098633 44.44201172 -251.27587891 43.91308594 C-249.13782206 41.74035024 -247.09210979 39.4900045 -245.05078125 37.2265625 C-244.3959375 36.51113281 -243.74109375 35.79570312 -243.06640625 35.05859375 C-237.29506833 28.32204932 -232.09076705 21.13691245 -226.86328125 13.9765625 C-209.99229639 -8.98752841 -209.99229639 -8.98752841 -203.80078125 -10.1484375 C-199.63510681 -9.36737354 -198.43003663 -7.89685168 -195.80078125 -4.5859375 C-194.79086583 -1.48426097 -194.37884302 1.62009917 -193.98828125 4.8515625 C-193.80749023 6.10163086 -193.80749023 6.10163086 -193.62304688 7.37695312 C-193.01795596 11.75089605 -192.66407289 15.98902878 -192.80078125 20.4140625 C-191.68703125 20.10726562 -190.57328125 19.80046875 -189.42578125 19.484375 C-184.58732787 18.27476166 -179.75815115 17.75357796 -174.80078125 17.2890625 C-173.93066406 17.20269531 -173.06054688 17.11632812 -172.1640625 17.02734375 C-170.04348626 16.81761643 -167.92220046 16.61508408 -165.80078125 16.4140625 C-165.80601807 15.63168213 -165.81125488 14.84930176 -165.81665039 14.04321289 C-165.83735231 10.52100417 -165.85041963 6.9988082 -165.86328125 3.4765625 C-165.87166016 2.24486328 -165.88003906 1.01316406 -165.88867188 -0.25585938 C-165.89189453 -1.42568359 -165.89511719 -2.59550781 -165.8984375 -3.80078125 C-165.90367432 -4.88480225 -165.90891113 -5.96882324 -165.91430664 -7.08569336 C-165.80078125 -9.5859375 -165.80078125 -9.5859375 -164.80078125 -10.5859375 C-159.83539568 -10.8797473 -154.86704349 -10.90024598 -149.89379883 -10.93603516 C-148.22275758 -10.95247956 -146.55178324 -10.97961465 -144.88110352 -11.01806641 C-126.73067216 -11.43349075 -126.73067216 -11.43349075 -118.80078125 -5.5859375 C-117.81078125 -4.5959375 -117.81078125 -4.5959375 -116.80078125 -3.5859375 C-116.14078125 -5.8959375 -115.48078125 -8.2059375 -114.80078125 -10.5859375 C-109.83868118 -10.68555498 -104.87717585 -10.7577553 -99.91430664 -10.80566406 C-98.22963304 -10.82565636 -96.54502774 -10.85285973 -94.8605957 -10.88769531 C-76.91209163 -11.24932443 -76.91209163 -11.24932443 -69.80078125 -6.5859375 C-68.40859375 -5.68875 -68.40859375 -5.68875 -66.98828125 -4.7734375 C-64.17750101 -1.96265726 -62.63071259 0.88975029 -60.80078125 4.4140625 C-59.81078125 3.393125 -59.81078125 3.393125 -58.80078125 2.3515625 C-57.80418876 1.36892789 -56.80375011 0.39018791 -55.80078125 -0.5859375 C-54.92873047 -1.4521875 -54.92873047 -1.4521875 -54.0390625 -2.3359375 C-37.52358794 -17.87991355 -15.79649968 -14.03582232 0 0 Z M-95.80078125 6.4140625 C-95.80078125 9.3840625 -95.80078125 12.3540625 -95.80078125 15.4140625 C-90.52078125 15.4140625 -85.24078125 15.4140625 -79.80078125 15.4140625 C-79.30078125 10.71614583 -79.30078125 10.71614583 -81.11328125 8.6640625 C-84.29978656 6.3036882 -87.17077199 6.30198446 -90.98828125 6.3515625 C-91.88933594 6.36058594 -92.79039062 6.36960937 -93.71875 6.37890625 C-94.74935547 6.39630859 -94.74935547 6.39630859 -95.80078125 6.4140625 Z M-145.80078125 7.4140625 C-145.80078125 10.0540625 -145.80078125 12.6940625 -145.80078125 15.4140625 C-140.85078125 15.4140625 -135.90078125 15.4140625 -130.80078125 15.4140625 C-130.23955581 10.62406166 -130.23955581 10.62406166 -132.44140625 8.61328125 C-135.34531491 7.13728794 -137.31030835 7.11083132 -140.55078125 7.2265625 C-142.02804687 7.26716797 -142.02804687 7.26716797 -143.53515625 7.30859375 C-144.65664063 7.36080078 -144.65664063 7.36080078 -145.80078125 7.4140625 Z M-37.80078125 9.4140625 C-39.45078125 11.3940625 -41.10078125 13.3740625 -42.80078125 15.4140625 C-33.23078125 15.7440625 -23.66078125 16.0740625 -13.80078125 16.4140625 C-16.04225577 11.93111347 -17.97968811 9.67677886 -22.58984375 7.61328125 C-28.02575592 5.84823407 -32.88655528 6.44964611 -37.80078125 9.4140625 Z M26.19921875 8.4140625 C26.19921875 11.0540625 26.19921875 13.6940625 26.19921875 16.4140625 C33.45921875 16.4140625 40.71921875 16.4140625 48.19921875 16.4140625 C45.98223674 11.98009848 44.95222737 11.16917358 40.70703125 9.1640625 C35.96009141 7.74441694 31.09917512 8.12006512 26.19921875 8.4140625 Z M-207.80078125 11.4140625 C-209.33655406 13.33073135 -210.82630535 15.26342981 -212.30078125 17.2265625 C-216.99459998 23.40997992 -221.84337788 29.43883477 -226.80078125 35.4140625 C-226.47078125 36.0740625 -226.14078125 36.7340625 -225.80078125 37.4140625 C-225.35089844 37.05054688 -224.90101563 36.68703125 -224.4375 36.3125 C-218.87804768 31.96743706 -213.04647357 28.69305097 -206.80078125 25.4140625 C-206.80078125 20.7940625 -206.80078125 16.1740625 -206.80078125 11.4140625 C-207.13078125 11.4140625 -207.46078125 11.4140625 -207.80078125 11.4140625 Z M-44.80078125 29.4140625 C-40.56047147 38.21437146 -40.56047147 38.21437146 -32.80078125 42.4140625 C-27.72865307 43.49399206 -23.90505853 42.81076093 -19.42578125 40.2265625 C-16.3120367 38.03701703 -14.30478801 35.98607856 -12.80078125 32.4140625 C-12.80078125 31.4240625 -12.80078125 30.4340625 -12.80078125 29.4140625 C-23.36078125 29.4140625 -33.92078125 29.4140625 -44.80078125 29.4140625 Z M34.88671875 29.9140625 C34.05076172 29.96175781 33.21480469 30.00945312 32.35351562 30.05859375 C30.3020109 30.17582259 28.25060457 30.29477111 26.19921875 30.4140625 C26.19921875 34.0440625 26.19921875 37.6740625 26.19921875 41.4140625 C35.65680022 41.83493717 35.65680022 41.83493717 44.19921875 38.4140625 C46.2422022 36.51143669 47.59293714 34.75047211 49.19921875 32.4140625 C49.19921875 31.4240625 49.19921875 30.4340625 49.19921875 29.4140625 C44.41456313 29.33610477 39.66067611 29.63523626 34.88671875 29.9140625 Z M-212.80078125 43.4140625 C-214.18310568 45.04032654 -215.5201564 46.7065627 -216.80078125 48.4140625 C-214.85078996 48.21935139 -214.85078996 48.21935139 -212.80078125 47.4140625 C-211.51641391 45.4302858 -211.51641391 45.4302858 -210.80078125 43.4140625 C-211.46078125 43.4140625 -212.12078125 43.4140625 -212.80078125 43.4140625 Z " fill="#40556C" transform="translate(677.80078125,350.5859375)"/>
<path d="M0 0 C2.5 1 2.5 1 4 2 C2.70217925 5.75084458 0.8672637 8.86330458 -1.32543945 12.16088867 C-9.75402692 24.89956726 -15.38391255 38.29364823 -19 53.125 C-19.20794189 53.97731201 -19.41588379 54.82962402 -19.63012695 55.70776367 C-21.53666451 64.21661656 -22.02215967 71.12327065 -18 79 C-12.52155198 79.86501811 -9.11433254 77.82209773 -4.65234375 74.95703125 C4.94194146 67.87789003 11.53761523 58.97833294 16.8203125 48.390625 C22.37275586 37.31562073 29.91508181 24.85377862 42 20 C45.75534596 18.96307612 48.98028529 18.7507364 52.8125 19.6875 C55.49235568 21.29541341 56.61844353 22.16417355 58 25 C59.27792331 30.6275522 58.02794721 34.57994611 55.0625 39.4375 C41.90497475 58.38965253 41.90497475 58.38965253 32.7890625 60.515625 C30.86961867 60.77155084 28.93375391 60.89822348 27 61 C26.94576362 62.91635217 26.90710037 64.83314925 26.875 66.75 C26.85179687 67.81734375 26.82859375 68.8846875 26.8046875 69.984375 C26.99512313 72.92470106 27.47329896 74.52361878 29 77 C43.2032664 77.90179469 52.50365142 69.74829432 62.73828125 60.7578125 C70.67289628 53.50599817 74.80961108 47.74082279 77 37 C81.0592999 23.03996865 81.0592999 23.03996865 85 20 C88.75 20.1875 88.75 20.1875 92 21 C92.99 23.97 92.99 23.97 94 27 C94.61746094 26.09378906 95.23492187 25.18757813 95.87109375 24.25390625 C108.74065292 5.63667759 108.74065292 5.63667759 118 1 C123.27768473 0.09005436 127.60563262 0.03247978 132.0625 3.125 C137.90577197 11.79566163 136.65740532 22.1109388 134.90625 31.95703125 C134.45001594 34.24471919 133.98122389 36.52993802 133.5 38.8125 C133.26152344 39.99392578 133.02304688 41.17535156 132.77734375 42.39257812 C132.1960437 45.26420038 131.60351557 48.13298003 131 51 C131.60618164 50.57920166 132.21236328 50.15840332 132.83691406 49.72485352 C133.63838867 49.17756592 134.43986328 48.63027832 135.265625 48.06640625 C136.05743164 47.52185791 136.84923828 46.97730957 137.66503906 46.41625977 C140.83826289 44.49155552 143.29851103 43.92881752 147 44 C150.75413073 45.62110191 152.81590866 47.58735729 155 51 C155.4765625 53.28662109 155.4765625 53.28662109 155.625 55.7734375 C155.69203125 56.6809375 155.7590625 57.5884375 155.828125 58.5234375 C155.88484375 59.46445312 155.9415625 60.40546875 156 61.375 C156.3157369 70.93301846 156.3157369 70.93301846 161 79 C165.84786928 78.80988748 169.02521118 77.93146392 172.59765625 74.5390625 C177.63774566 69.00759947 179.47826141 63.52751914 181.25 56.375 C183.53867806 47.27277179 187.41224636 40.47025888 193 33 C193.79083984 31.89011719 193.79083984 31.89011719 194.59765625 30.7578125 C198.96973751 25.08263181 204.64912551 21.50263117 211.75 20.4375 C215.57981728 21.10035299 217.27376927 22.27376927 220 25 C221.90545288 28.81090576 221.57485909 32.85646124 221 37 C217.01793622 47.95461025 208.73501201 57.48306 198.375 62.6875 C196.5944181 63.483604 194.80641691 64.26439724 193 65 C192.94552953 66.41623216 192.90699492 67.83308191 192.875 69.25 C192.85179687 70.03890625 192.82859375 70.8278125 192.8046875 71.640625 C193.0171622 74.20731941 193.71345895 75.7916067 195 78 C209.68179814 77.30086676 218.47159128 67.754527 228.2109375 57.72265625 C234.67205477 50.59849856 238.56594783 43.16029894 241.85766602 34.19116211 C244.15616022 28.06893106 244.15616022 28.06893106 247 26 C249.86449123 25.57032632 251.3314673 25.54635281 253.75 27.1875 C255.86411394 30.25296522 256.22809342 32.64284414 255.609375 36.32421875 C255.11722923 38.56348202 254.58439033 40.78318048 254 43 C254.70125 42.14277344 255.4025 41.28554688 256.125 40.40234375 C270.7578454 22.68862679 270.7578454 22.68862679 280 20 C284.06758502 20.06894212 286.16947873 20.34432531 289.375 22.875 C293.19544837 27.87097095 292.33829808 34.01246924 292 40 C291.35827321 44.41916401 290.45050225 48.76296533 289.5 53.125 C287.82475578 60.86734493 286.59771513 68.05934362 287 76 C291.71410095 73.15362033 294.87315016 70.13257487 298.25 65.8125 C302.77054795 60.11472603 302.77054795 60.11472603 305 59 C310.25465839 58.55279503 310.25465839 58.55279503 312.875 60.125 C314.64580745 63.07634574 314.57072835 64.57562991 314 68 C309.55079127 77.107792 301.36165151 86.05366552 292 90 C287.68060192 90.88134777 284.65858512 90.34195766 280.75 88.3125 C276.81042889 84.99967884 273.91737554 82.14076481 273 77 C272.25253036 66.09429535 273.44179215 56.30314433 276.125 45.73046875 C277.15223828 41.9895672 277.15223828 41.9895672 277 38 C263.67286359 52.10960086 253.23180324 68.6809368 244.23974609 85.83129883 C243 88 243 88 241 90 C233.96198604 90.55857254 233.96198604 90.55857254 231.0625 88.875 C228.62450297 84.5726523 228.96648332 79.80629145 229 75 C228.46632813 75.50789063 227.93265625 76.01578125 227.3828125 76.5390625 C217.44018727 85.72480969 208.57682782 91.13449323 194.90234375 91.36328125 C189.6585855 90.70692927 186.50397254 87.76352606 183 84 C179.54516288 85.52012833 176.68504536 87.62614635 173.68359375 89.87890625 C169.02324242 92.98220284 163.35900006 92.51788656 158 92 C152.54923512 90.40934928 149.69787838 86.88742475 146.9921875 82.05078125 C143.52139065 74.87689013 143.0187085 66.81371091 142 59 C137.27491433 63.61462912 132.74273361 68.3189482 128.4453125 73.3359375 C127.34597202 74.60166464 126.1854566 75.8145434 125 77 C121.375 77.125 121.375 77.125 118 77 C114.13995909 70.3746975 115.22573388 65.2148362 116.5625 57.875 C116.84915527 56.16195679 116.84915527 56.16195679 117.14160156 54.41430664 C118.53214174 46.22980561 120.05819559 38.06079478 121.77954102 29.93896484 C122.88528642 24.52408905 123.15465642 19.5289669 123 14 C106.40863497 22.04429819 97.20350059 46.82210892 89.9765625 62.58203125 C89.44401855 63.7424292 88.91147461 64.90282715 88.36279297 66.09838867 C87.3059082 68.40942418 86.25521727 70.7233046 85.21142578 73.0402832 C79.02327266 86.65115156 79.02327266 86.65115156 74 90 C70.9375 89.8125 70.9375 89.8125 68 89 C65.18998018 84.78497028 65.59324785 81.16727482 66.51171875 76.2734375 C66.67285156 75.52320313 66.83398438 74.77296875 67 74 C66.39414063 74.50789063 65.78828125 75.01578125 65.1640625 75.5390625 C55.00927295 83.88161269 44.47780043 91.76450452 30.6875 90.9375 C24.9986638 90.09905029 21.53257783 87.74543586 17.75 83.4375 C16.46593067 81.64897486 15.22130526 79.83195789 14 78 C13.16597656 78.74765625 12.33195312 79.4953125 11.47265625 80.265625 C2.56642762 88.11882854 -5.49068363 94.50440792 -18 94 C-23.56035139 92.90153897 -27.56789728 90.57613696 -31 86 C-38.38889138 72.09434868 -35.18584104 56.39258572 -31 42 C-17.31938672 -1.81208875 -17.31938672 -1.81208875 0 0 Z M42 34 C39.03 37.3 36.06 40.6 33 44 C36.06049937 44.34613723 36.06049937 44.34613723 37.82421875 42.25 C38.43910156 41.5075 39.05398437 40.765 39.6875 40 C40.31011719 39.2575 40.93273437 38.515 41.57421875 37.75 C42.04472656 37.1725 42.51523438 36.595 43 36 C42.67 35.34 42.34 34.68 42 34 Z M205 38 C203.35 39.98 201.7 41.96 200 44 C200.33 44.66 200.66 45.32 201 46 C202.65 44.02 204.3 42.04 206 40 C205.67 39.34 205.34 38.68 205 38 Z " fill="#40556C" transform="translate(89,318)"/>
<path d="M0 0 C1.09074326 -0.01210762 1.09074326 -0.01210762 2.20352173 -0.02445984 C3.75203047 -0.0383281 5.30057013 -0.04903792 6.84912109 -0.05688477 C9.18259192 -0.07389816 11.51456996 -0.11772867 13.84765625 -0.16210938 C26.23781813 -0.29190799 36.40731605 1.58105534 45.8515625 10.23828125 C50.22294845 14.55005739 52.55190511 18.58017992 54.8515625 24.23828125 C56.58792969 23.89603516 56.58792969 23.89603516 58.359375 23.546875 C59.89833616 23.2559738 61.43740449 22.96563913 62.9765625 22.67578125 C63.73710938 22.52431641 64.49765625 22.37285156 65.28125 22.21679688 C69.73600029 21.39113195 73.39416768 20.99861065 77.8515625 22.23828125 C79.8515625 24.23828125 79.8515625 24.23828125 80.1640625 27.67578125 C79.8515625 31.23828125 79.8515625 31.23828125 78.82421875 32.82421875 C75.83670443 34.96576367 72.50086118 35.60979498 68.9765625 36.42578125 C68.26886719 36.60302734 67.56117188 36.78027344 66.83203125 36.96289062 C63.11003916 37.860466 59.68212395 38.45609749 55.8515625 38.23828125 C55.82578125 38.79515625 55.8 39.35203125 55.7734375 39.92578125 C55.04724287 49.69639995 50.89451884 56.51283524 43.8515625 63.23828125 C34.28725549 71.0599391 22.74179123 71.69798803 10.88696289 71.51953125 C8.76105501 71.48786405 6.63588803 71.47849658 4.50976562 71.47265625 C-5.81911163 71.40294419 -5.81911163 71.40294419 -8.1484375 70.23828125 C-8.6434375 61.32828125 -8.6434375 61.32828125 -9.1484375 52.23828125 C-10.2828125 53.92953125 -11.4171875 55.62078125 -12.5859375 57.36328125 C-18.67384211 65.68734063 -25.9205439 70.48492806 -36.1484375 72.23828125 C-44.14430119 72.94727409 -51.7291482 72.51902175 -59.1484375 69.23828125 C-59.8084375 68.57828125 -60.4684375 67.91828125 -61.1484375 67.23828125 C-59.1484375 66.23828125 -59.1484375 66.23828125 -57.2578125 66.796875 C-56.08992187 67.23193359 -56.08992187 67.23193359 -54.8984375 67.67578125 C-45.38789905 70.64438863 -36.05242671 70.32160439 -26.94140625 66.30859375 C-24.98407932 65.35853887 -24.98407932 65.35853887 -24.1484375 63.23828125 C-23.5709375 62.97015625 -22.9934375 62.70203125 -22.3984375 62.42578125 C-16.49019948 59.30754451 -13.97826344 54.36540005 -11.26171875 48.54296875 C-10.1484375 46.23828125 -10.1484375 46.23828125 -8.1484375 43.23828125 C-7.1584375 43.73328125 -7.1584375 43.73328125 -6.1484375 44.23828125 C-5.43675764 39.16756224 -5.04181424 34.35619767 -5.1484375 29.23828125 C-6.0765625 28.92890625 -6.0765625 28.92890625 -7.0234375 28.61328125 C-9.99497395 26.69052237 -10.27868409 24.57233598 -11.1484375 21.23828125 C-9.1684375 21.23828125 -7.1884375 21.23828125 -5.1484375 21.23828125 C-5.8084375 20.57828125 -6.4684375 19.91828125 -7.1484375 19.23828125 C-7.4831543 17.37475586 -7.4831543 17.37475586 -7.59765625 15.140625 C-7.64083984 14.33947266 -7.68402344 13.53832031 -7.72851562 12.71289062 C-7.76396484 11.87564453 -7.79941406 11.03839844 -7.8359375 10.17578125 C-7.88298828 9.33466797 -7.93003906 8.49355469 -7.97851562 7.62695312 C-8.08310244 5.4992116 -8.12115497 3.36841695 -8.1484375 1.23828125 C-6.21859788 -0.69155837 -2.63239708 0.02761967 0 0 Z M11.8515625 19.23828125 C11.8515625 21.87828125 11.8515625 24.51828125 11.8515625 27.23828125 C19.1115625 27.23828125 26.3715625 27.23828125 33.8515625 27.23828125 C31.63458049 22.80431723 30.60457112 21.99339233 26.359375 19.98828125 C21.61243516 18.56863569 16.75151887 18.94428387 11.8515625 19.23828125 Z M20.5390625 40.73828125 C19.70310547 40.78597656 18.86714844 40.83367187 18.00585938 40.8828125 C15.95435465 41.00004134 13.90294832 41.11898986 11.8515625 41.23828125 C11.8515625 44.86828125 11.8515625 48.49828125 11.8515625 52.23828125 C21.30914397 52.65915592 21.30914397 52.65915592 29.8515625 49.23828125 C31.89454595 47.33565544 33.24528089 45.57469086 34.8515625 43.23828125 C34.8515625 42.24828125 34.8515625 41.25828125 34.8515625 40.23828125 C30.06690688 40.16032352 25.31301986 40.45945501 20.5390625 40.73828125 Z " fill="#40556C" transform="translate(692.1484375,339.76171875)"/>
<path d="M0 0 C4.16567444 0.78106396 5.37074462 2.25158582 8 5.5625 C9.00991542 8.66417653 9.42193823 11.76853667 9.8125 15 C9.99329102 16.25006836 9.99329102 16.25006836 10.17773438 17.52539062 C10.78282529 21.89933355 11.13670836 26.13746628 11 30.5625 C11.99 30.27375 12.98 29.985 14 29.6875 C18.37748992 28.6010007 22.78625461 27.92495331 27.25 27.3125 C27.94738281 27.20824707 28.64476562 27.10399414 29.36328125 26.99658203 C33.18657823 26.50209492 35.7579113 26.32311914 39 28.5625 C39.02687279 30.37492052 39.04633715 32.18745233 39.0625 34 C39.07410156 35.00933594 39.08570313 36.01867187 39.09765625 37.05859375 C39 39.5625 39 39.5625 38 40.5625 C36.61040156 40.82273558 35.21061549 41.02916451 33.80859375 41.2109375 C32.94556641 41.32953125 32.08253906 41.448125 31.19335938 41.5703125 C29.38400472 41.81138881 27.57411611 42.04849749 25.76367188 42.28125 C20.13219641 43.06374622 15.08892282 43.95514179 10 46.5625 C8.4405499 49.36936771 8.4405499 49.36936771 7.9375 52.6875 C5.9442082 60.52952958 2.46473566 66.55459659 -4.375 71.125 C-8.79104327 72.87618957 -12.31567377 73.42427951 -17 72.5625 C-21.64425866 70.06836109 -25.31375022 67.62124933 -27 62.5625 C-27.13708847 58.24421307 -27.09407204 54.7296433 -26 50.5625 C-26.76183594 51.46871094 -27.52367187 52.37492187 -28.30859375 53.30859375 C-33.05474818 58.92449062 -37.81927521 64.53408047 -42.875 69.875 C-43.53242188 70.57238281 -44.18984375 71.26976562 -44.8671875 71.98828125 C-47.57527384 73.98710688 -49.67012392 74.32400888 -53 74.5625 C-55.375 73.5625 -55.375 73.5625 -57 71.5625 C-57.54644561 67.21695634 -57.46947163 65.22678042 -54.91015625 61.60546875 C-53.97774127 60.63717882 -53.02744195 59.68587934 -52.0625 58.75 C-51.04770993 57.70618313 -50.03339378 56.66190532 -49.01953125 55.6171875 C-48.50986816 55.10381836 -48.00020508 54.59044922 -47.47509766 54.06152344 C-45.33704081 51.88878774 -43.29132854 49.638442 -41.25 47.375 C-40.59515625 46.65957031 -39.9403125 45.94414062 -39.265625 45.20703125 C-33.49428708 38.47048682 -28.2899858 31.28534995 -23.0625 24.125 C-6.19151514 1.16090909 -6.19151514 1.16090909 0 0 Z M-4 21.5625 C-5.53577281 23.47916885 -7.0255241 25.41186731 -8.5 27.375 C-13.19381873 33.55841742 -18.04259663 39.58727227 -23 45.5625 C-22.67 46.2225 -22.34 46.8825 -22 47.5625 C-21.55011719 47.19898438 -21.10023438 46.83546875 -20.63671875 46.4609375 C-15.07726643 42.11587456 -9.24569232 38.84148847 -3 35.5625 C-3 30.9425 -3 26.3225 -3 21.5625 C-3.33 21.5625 -3.66 21.5625 -4 21.5625 Z M-9 53.5625 C-10.38232443 55.18876404 -11.71937515 56.8550002 -13 58.5625 C-11.05000871 58.36778889 -11.05000871 58.36778889 -9 57.5625 C-7.71563266 55.5787233 -7.71563266 55.5787233 -7 53.5625 C-7.66 53.5625 -8.32 53.5625 -9 53.5625 Z " fill="#40556C" transform="translate(474,340.4375)"/>
<path d="M0 0 C2.19921875 2.4140625 2.19921875 2.4140625 5.19921875 8.4140625 C5.52921875 3.1340625 5.85921875 -2.1459375 6.19921875 -7.5859375 C6.52921875 -7.5859375 6.85921875 -7.5859375 7.19921875 -7.5859375 C7.25980469 -6.53792969 7.32039062 -5.48992187 7.3828125 -4.41015625 C7.46723613 -3.03123702 7.55188322 -1.65233145 7.63671875 -0.2734375 C7.67603516 0.41685547 7.71535156 1.10714844 7.75585938 1.81835938 C7.9484929 4.88567785 8.22244592 7.48374402 9.19921875 10.4140625 C7.54921875 10.7440625 5.89921875 11.0740625 4.19921875 11.4140625 C4.69421875 13.8890625 4.69421875 13.8890625 5.19921875 16.4140625 C6.84921875 16.7440625 8.49921875 17.0740625 10.19921875 17.4140625 C10.383729 30.08376637 10.383729 30.08376637 9.19921875 35.4140625 C7.71421875 34.9190625 7.71421875 34.9190625 6.19921875 34.4140625 C5.82410156 35.15011719 5.44898438 35.88617188 5.0625 36.64453125 C2.25097429 42.0055513 -0.21327978 46.44649366 -4.80078125 50.4140625 C-5.69796875 51.31125 -5.69796875 51.31125 -6.61328125 52.2265625 C-7.00515625 52.6184375 -7.39703125 53.0103125 -7.80078125 53.4140625 C-8.79078125 52.9190625 -8.79078125 52.9190625 -9.80078125 52.4140625 C-10.29578125 53.8990625 -10.29578125 53.8990625 -10.80078125 55.4140625 C-19.00456535 60.75813972 -29.08342631 60.51114267 -38.36328125 58.73046875 C-41.2039671 58.03034688 -44.00490092 57.27433337 -46.80078125 56.4140625 C-46.80078125 55.7540625 -46.80078125 55.0940625 -46.80078125 54.4140625 C-48.48586515 53.08942435 -50.26777247 51.98038497 -52.07421875 50.828125 C-55.54657588 47.98424879 -56.11281666 44.6043018 -56.55078125 40.2890625 C-56.64875 39.42023438 -56.74671875 38.55140625 -56.84765625 37.65625 C-56.80078125 35.4140625 -56.80078125 35.4140625 -54.80078125 33.4140625 C-53.81078125 32.9190625 -53.81078125 32.9190625 -52.80078125 32.4140625 C-52.47078125 31.4240625 -52.14078125 30.4340625 -51.80078125 29.4140625 C-51.14078125 29.4140625 -50.48078125 29.4140625 -49.80078125 29.4140625 C-49.47078125 28.0940625 -49.14078125 26.7740625 -48.80078125 25.4140625 C-48.47078125 26.0740625 -48.14078125 26.7340625 -47.80078125 27.4140625 C-47.30578125 24.4440625 -47.30578125 24.4440625 -46.80078125 21.4140625 C-46.47078125 21.4140625 -46.14078125 21.4140625 -45.80078125 21.4140625 C-45.80078125 24.3840625 -45.80078125 27.3540625 -45.80078125 30.4140625 C-45.14078125 30.4140625 -44.48078125 30.4140625 -43.80078125 30.4140625 C-43.28515625 31.4865625 -42.76953125 32.5590625 -42.23828125 33.6640625 C-39.87139573 37.74404349 -37.28952147 39.92369492 -32.80078125 41.4140625 C-27.47595624 42.328236 -22.8895403 41.77626598 -18.30859375 38.8359375 C-15.54204109 36.22706401 -14.16697775 32.91016782 -12.80078125 29.4140625 C-12.47078125 29.4140625 -12.14078125 29.4140625 -11.80078125 29.4140625 C-11.14078125 26.1140625 -10.48078125 22.8140625 -9.80078125 19.4140625 C-9.14078125 20.0740625 -8.48078125 20.7340625 -7.80078125 21.4140625 C-7.74470703 20.52654297 -7.74470703 20.52654297 -7.6875 19.62109375 C-7.28210017 14.74834681 -6.65797228 11.51351051 -3.80078125 7.4140625 C-3.80078125 6.7540625 -3.80078125 6.0940625 -3.80078125 5.4140625 C-4.46078125 5.4140625 -5.12078125 5.4140625 -5.80078125 5.4140625 C-5.80078125 4.0940625 -5.80078125 2.7740625 -5.80078125 1.4140625 C-6.79078125 1.4140625 -7.78078125 1.4140625 -8.80078125 1.4140625 C-10.48828125 -0.5859375 -10.48828125 -0.5859375 -11.80078125 -2.5859375 C-11.14078125 -2.5859375 -10.48078125 -2.5859375 -9.80078125 -2.5859375 C-9.80078125 -3.5759375 -9.80078125 -4.5659375 -9.80078125 -5.5859375 C-11.12078125 -5.5859375 -12.44078125 -5.5859375 -13.80078125 -5.5859375 C-13.80078125 -6.2459375 -13.80078125 -6.9059375 -13.80078125 -7.5859375 C-14.77015625 -7.7096875 -15.73953125 -7.8334375 -16.73828125 -7.9609375 C-21.14893902 -8.58457559 -25.46555884 -9.57340256 -29.80078125 -10.5859375 C-30.13078125 -9.9259375 -30.46078125 -9.2659375 -30.80078125 -8.5859375 C-31.74953125 -8.6890625 -32.69828125 -8.7921875 -33.67578125 -8.8984375 C-38.24855429 -8.93576626 -41.62970738 -6.92296689 -45.56640625 -4.77734375 C-47.80078125 -3.5859375 -47.80078125 -3.5859375 -50.80078125 -2.5859375 C-50.47078125 -1.5959375 -50.14078125 -0.6059375 -49.80078125 0.4140625 C-50.79078125 0.0840625 -51.78078125 -0.2459375 -52.80078125 -0.5859375 C-53.23390625 0.3834375 -53.66703125 1.3528125 -54.11328125 2.3515625 C-55.80078125 5.4140625 -55.80078125 5.4140625 -58.80078125 6.4140625 C-58.68589164 2.62270536 -57.36456752 0.59736726 -54.86328125 -2.0859375 C-38.12189878 -17.73623191 -15.94029022 -14.16358597 0 0 Z " fill="#40556C" transform="translate(677.80078125,350.5859375)"/>
<path d="M0 0 C1.02029297 -0.020625 2.04058594 -0.04125 3.09179688 -0.0625 C9.09717523 -0.09355561 13.37162657 0.40087179 18.6875 3.25 C18.6875 7.21 18.6875 11.17 18.6875 15.25 C7.1375 15.25 -4.4125 15.25 -16.3125 15.25 C-16.3125 3.25 -16.3125 3.25 -15.3125 1.25 C-10.45098903 -0.46173235 -5.08345997 0.02540142 0 0 Z " fill="#40556C" transform="translate(648.3125,365.75)"/>
<path d="M0 0 C3.67045843 3.4201999 5.1699145 6.5786668 5.75 11.5625 C5.15626351 15.79928633 3.73322455 18.63711219 0.625 21.5625 C-3.43155665 22.97347623 -7.00472799 23.23516634 -11.25 22.5625 C-14.71478519 20.86160545 -16.61368391 19.55847301 -18.6875 16.3125 C-19.73396423 11.19645264 -19.23372995 7.12289923 -16.4375 2.6875 C-11.46492263 -2.14300373 -6.47189956 -2.86257096 0 0 Z " fill="#40556C" transform="translate(771.25,387.4375)"/>
<path d="M0 0 C0.33 0.66 0.66 1.32 1 2 C1.66 2 2.32 2 3 2 C3.33 1.34 3.66 0.68 4 0 C5.87675255 3.71821269 7.72230584 7.45107654 9.5625 11.1875 C10.36204102 12.77014648 10.36204102 12.77014648 11.17773438 14.38476562 C11.92700195 15.91713867 11.92700195 15.91713867 12.69140625 17.48046875 C13.15748291 18.41785889 13.62355957 19.35524902 14.10375977 20.32104492 C15 23 15 23 14 28 C7.73 28 1.46 28 -5 28 C-6.64860274 24.89727579 -8.29398341 21.79291675 -9.9375 18.6875 C-10.40607422 17.80642578 -10.87464844 16.92535156 -11.35742188 16.01757812 C-12.0293457 14.74624023 -12.0293457 14.74624023 -12.71484375 13.44921875 C-13.12855225 12.66893311 -13.54226074 11.88864746 -13.96850586 11.0847168 C-15 9 -15 9 -16 6 C-15.34 5.34 -14.68 4.68 -14 4 C-13.32845067 5.28913487 -12.66291141 6.58140204 -12 7.875 C-11.62875 8.59429687 -11.2575 9.31359375 -10.875 10.0546875 C-10 12 -10 12 -10 14 C-9.34 14 -8.68 14 -8 14 C-7.67 14.66 -7.34 15.32 -7 16 C-6.87625 15.236875 -6.7525 14.47375 -6.625 13.6875 C-6 11 -6 11 -4 8 C-4.30840599 5.84725052 -4.30840599 5.84725052 -5 4 C-4.34 4 -3.68 4 -3 4 C-3 3.01 -3 2.02 -3 1 C-2.34 1 -1.68 1 -1 1 C-0.34 2.32 0.32 3.64 1 5 C0 3 0 3 0 0 Z M0 6 C-0.33 6.66 -0.66 7.32 -1 8 C-0.34 8 0.32 8 1 8 C0.67 7.34 0.34 6.68 0 6 Z " fill="#40556C" transform="translate(605,383)"/>
<path d="M0 0 C0.86302734 -0.01224609 1.72605469 -0.02449219 2.61523438 -0.03710938 C3.85950195 -0.04000977 3.85950195 -0.04000977 5.12890625 -0.04296875 C5.88373291 -0.04707764 6.63855957 -0.05118652 7.41625977 -0.05541992 C9.4375 0.1875 9.4375 0.1875 12.4375 2.1875 C12.73046875 4.7890625 12.73046875 4.7890625 12.625 7.8125 C12.59792969 8.81539063 12.57085938 9.81828125 12.54296875 10.8515625 C12.50816406 11.62242187 12.47335937 12.39328125 12.4375 13.1875 C7.5013629 13.98571104 2.76518173 14.34964519 -2.25 14.375 C-3.53261719 14.38917969 -4.81523438 14.40335937 -6.13671875 14.41796875 C-9.5625 14.1875 -9.5625 14.1875 -13.5625 12.1875 C-13.5625 8.5575 -13.5625 4.9275 -13.5625 1.1875 C-8.92217704 0.02741926 -4.75535493 0.00356741 0 0 Z " fill="#40556C" transform="translate(716.5625,366.8125)"/>
<path d="M0 0 C2 2 2 2 2.3125 5.4375 C2 9 2 9 0.96875 10.58984375 C-1.99925419 12.71573564 -5.30934529 13.33099395 -8.8125 14.125 C-9.86147461 14.37830078 -9.86147461 14.37830078 -10.93164062 14.63671875 C-14.95272458 15.59214936 -18.90739115 16.31789853 -23 17 C-23 12.71 -23 8.42 -23 4 C-22.34 4 -21.68 4 -21 4 C-21 3.34 -21 2.68 -21 2 C-18.62733173 1.46569684 -16.25293117 0.94737476 -13.875 0.4375 C-13.20984375 0.28603516 -12.5446875 0.13457031 -11.859375 -0.02148438 C-7.60540007 -0.91815556 -4.20986984 -1.14303588 0 0 Z " fill="#40556C" transform="translate(770,362)"/>
<path d="M0 0 C3.0625 0.3125 3.0625 0.3125 4.74487305 1.58789062 C7.04025048 4.59225345 6.17124589 8.22762545 5.875 11.8125 C5.83052734 12.58464844 5.78605469 13.35679687 5.74023438 14.15234375 C5.4739882 17.94552994 5.20615009 20.09702487 3.0625 23.3125 C-0.02164557 23.70413753 -1.98714527 23.92187797 -4.9375 23.3125 C-7.51052614 20.98069506 -7.85454657 19.10292768 -8.2109375 15.70703125 C-8.3941388 10.48579425 -8.4372003 6.48521959 -4.9375 2.3125 C-2.9375 0.3125 -2.9375 0.3125 0 0 Z " fill="#40556C" transform="translate(412.9375,338.6875)"/>
<path d="M0 0 C0.33 0.66 0.66 1.32 1 2 C1.66 2 2.32 2 3 2 C3.33 1.34 3.66 0.68 4 0 C5.87675255 3.71821269 7.72230584 7.45107654 9.5625 11.1875 C10.36204102 12.77014648 10.36204102 12.77014648 11.17773438 14.38476562 C11.92700195 15.91713867 11.92700195 15.91713867 12.69140625 17.48046875 C13.15748291 18.41785889 13.62355957 19.35524902 14.10375977 20.32104492 C15 23 15 23 14 28 C7.73 28 1.46 28 -5 28 C-6.64860274 24.89727579 -8.29398341 21.79291675 -9.9375 18.6875 C-10.40607422 17.80642578 -10.87464844 16.92535156 -11.35742188 16.01757812 C-12.0293457 14.74624023 -12.0293457 14.74624023 -12.71484375 13.44921875 C-13.12855225 12.66893311 -13.54226074 11.88864746 -13.96850586 11.0847168 C-15 9 -15 9 -16 6 C-15.34 5.34 -14.68 4.68 -14 4 C-13.32845067 5.28913487 -12.66291141 6.58140204 -12 7.875 C-11.62875 8.59429687 -11.2575 9.31359375 -10.875 10.0546875 C-10 12 -10 12 -10 14 C-9.34 14 -8.68 14 -8 14 C-7.72285156 14.71027344 -7.44570313 15.42054688 -7.16015625 16.15234375 C-6.79792969 17.07144531 -6.43570313 17.99054688 -6.0625 18.9375 C-5.70285156 19.85402344 -5.34320312 20.77054687 -4.97265625 21.71484375 C-4.2003782 23.92418533 -4.2003782 23.92418533 -3 25 C-0.30764224 25.23678716 2.36498156 25.42198025 5.0625 25.5625 C5.82111328 25.60568359 6.57972656 25.64886719 7.36132812 25.69335938 C9.24065438 25.79973633 11.12030244 25.90039934 13 26 C12.22520264 23.00847418 12.22520264 23.00847418 11 20 C10.01 19.67 9.02 19.34 8 19 C8 18.34 8 17.68 8 17 C7.34 16.67 6.68 16.34 6 16 C6 15.34 6 14.68 6 14 C5.36096883 12.32254318 4.69658363 10.65438613 4 9 C3.67 9 3.34 9 3 9 C3 7.35 3 5.7 3 4 C2.01 3.67 1.02 3.34 0 3 C0 2.01 0 1.02 0 0 Z " fill="#40556C" transform="translate(605,383)"/>
<path d="M0 0 C5.39161903 4.87415714 5.39161903 4.87415714 6.625 8.5 C6.13 9.985 6.13 9.985 5.625 11.5 C3.625 9.6875 3.625 9.6875 1.625 7.5 C1.625 6.51 1.625 5.52 1.625 4.5 C0.305 3.84 -1.015 3.18 -2.375 2.5 C-2.375 1.84 -2.375 1.18 -2.375 0.5 C-5.31220508 -1.02299523 -8.2918649 -2.30100302 -11.375 -3.5 C-11.375 -4.16 -11.375 -4.82 -11.375 -5.5 C-12.344375 -5.62375 -13.31375 -5.7475 -14.3125 -5.875 C-18.72315777 -6.49863809 -23.03977759 -7.48746506 -27.375 -8.5 C-27.705 -7.84 -28.035 -7.18 -28.375 -6.5 C-29.32375 -6.603125 -30.2725 -6.70625 -31.25 -6.8125 C-35.82277304 -6.84982876 -39.20392613 -4.83702939 -43.140625 -2.69140625 C-45.375 -1.5 -45.375 -1.5 -48.375 -0.5 C-48.045 0.49 -47.715 1.48 -47.375 2.5 C-48.365 2.17 -49.355 1.84 -50.375 1.5 C-50.808125 2.469375 -51.24125 3.43875 -51.6875 4.4375 C-53.375 7.5 -53.375 7.5 -56.375 8.5 C-56.26011039 4.70864286 -54.93878627 2.68330476 -52.4375 0 C-37.2224601 -14.22342834 -15.22664197 -13.20943726 0 0 Z " fill="#40556C" transform="translate(675.375,348.5)"/>
<path d="M0 0 C1.67104125 -0.0164444 3.34201559 -0.04357949 5.01269531 -0.08203125 C24.56834795 -0.52961809 24.56834795 -0.52961809 31.09301758 5.35009766 C31.83691406 7.52050781 31.83691406 7.52050781 32.09301758 9.35009766 C29.61801758 8.36009766 29.61801758 8.36009766 27.09301758 7.35009766 C27.09301758 6.69009766 27.09301758 6.03009766 27.09301758 5.35009766 C18.5814752 3.09980314 10.20015592 3.11503741 1.46801758 3.22509766 C0.06828444 3.23515368 -1.33145574 3.24427486 -2.73120117 3.25244141 C-6.12320379 3.27583453 -9.51511649 3.31169917 -12.90698242 3.35009766 C-13.23698242 11.60009766 -13.56698242 19.85009766 -13.90698242 28.35009766 C-14.56698242 28.02009766 -15.22698242 27.69009766 -15.90698242 27.35009766 C-15.93584779 23.03761156 -15.95373497 18.72515004 -15.96948242 14.41259766 C-15.97786133 13.18089844 -15.98624023 11.94919922 -15.99487305 10.68017578 C-15.9980957 9.51035156 -16.00131836 8.34052734 -16.00463867 7.13525391 C-16.00987549 6.05123291 -16.0151123 4.96721191 -16.02050781 3.8503418 C-15.74565507 -2.20292038 -4.79865897 0.0345328 0 0 Z " fill="#40556C" transform="translate(527.906982421875,339.64990234375)"/>
<path d="M0 0 C0.99 0.33 1.98 0.66 3 1 C3.625 3.375 3.625 3.375 4 6 C3.34 6.66 2.68 7.32 2 8 C1.34 7.67 0.68 7.34 0 7 C-0.268125 7.73347656 -0.53625 8.46695312 -0.8125 9.22265625 C-4.75981759 18.45470496 -11.84282683 24.04873537 -20.9609375 27.80859375 C-30.22149796 30.64146562 -41.18245522 29.89903603 -50 26 C-50.66 25.34 -51.32 24.68 -52 24 C-50 23 -50 23 -48.109375 23.55859375 C-46.94148437 23.99365234 -46.94148437 23.99365234 -45.75 24.4375 C-36.23946155 27.40610738 -26.90398921 27.08332314 -17.79296875 23.0703125 C-15.83564182 22.12025762 -15.83564182 22.12025762 -15 20 C-14.4225 19.731875 -13.845 19.46375 -13.25 19.1875 C-5.91911466 15.31842163 -2.5164601 7.5493803 0 0 Z " fill="#40556C" transform="translate(683,383)"/>
<path d="M0 0 C0.33 0 0.66 0 1 0 C1.77343465 5.41404256 2.04595288 10.5316068 2 16 C5.9652407 16.02497729 9.93045005 16.0429894 13.89575195 16.05493164 C15.89731458 16.06235104 17.89885533 16.07506659 19.90039062 16.08789062 C29.99259093 16.12554542 29.99259093 16.12554542 40 15 C40.33 14.34 40.66 13.68 41 13 C41.78375 12.690625 42.5675 12.38125 43.375 12.0625 C47.95871379 10.20718727 50.81278652 6.37442696 53 2 C53.99 2.33 54.98 2.66 56 3 C55.13754115 8.06558108 52.01417772 10.11723145 48 13 C38.49115111 18.83411446 29.17656985 19.3029043 18.26171875 19.20581055 C16.10925646 19.18736509 13.95722121 19.1853026 11.8046875 19.18554688 C1.29576371 19.14788186 1.29576371 19.14788186 -1 18 C-0.505 9.09 -0.505 9.09 0 0 Z " fill="#40556C" transform="translate(685,392)"/>
<path d="M0 0 C1.16444641 -0.01210762 1.16444641 -0.01210762 2.35241699 -0.02445984 C4.00347651 -0.03832482 5.65456498 -0.04903612 7.30566406 -0.05688477 C9.80591412 -0.07396035 12.30479375 -0.11780433 14.8046875 -0.16210938 C30.33829594 -0.31284822 30.33829594 -0.31284822 37.34375 4.23828125 C38.271875 4.81578125 39.2 5.39328125 40.15625 5.98828125 C43.1032569 9.01948834 44.67138078 12.3890292 46.34375 16.23828125 C45.68375 17.22828125 45.02375 18.21828125 44.34375 19.23828125 C44.055 18.26890625 43.76625 17.29953125 43.46875 16.30078125 C42.70160318 13.13163922 42.70160318 13.13163922 40.34375 12.23828125 C40.34375 11.57828125 40.34375 10.91828125 40.34375 10.23828125 C37.28816577 7.21310216 37.28816577 7.21310216 33.34375 6.23828125 C33.34375 5.57828125 33.34375 4.91828125 33.34375 4.23828125 C32.35375 4.56828125 31.36375 4.89828125 30.34375 5.23828125 C30.34375 4.57828125 30.34375 3.91828125 30.34375 3.23828125 C18.13375 3.23828125 5.92375 3.23828125 -6.65625 3.23828125 C-6.65625 4.88828125 -6.65625 6.53828125 -6.65625 8.23828125 C-6.98625 8.23828125 -7.31625 8.23828125 -7.65625 8.23828125 C-8.03688221 5.91219555 -8.36894945 3.57772861 -8.65625 1.23828125 C-6.66324765 -0.7547211 -2.7299484 0.02674311 0 0 Z " fill="#40556C" transform="translate(570.65625,339.76171875)"/>
<path d="M0 0 C1.09074326 -0.01210762 1.09074326 -0.01210762 2.20352173 -0.02445984 C3.75203047 -0.0383281 5.30057013 -0.04903792 6.84912109 -0.05688477 C9.18259192 -0.07389816 11.51456996 -0.11772867 13.84765625 -0.16210938 C26.48979075 -0.29514612 36.01537971 1.7831098 45.8515625 10.23828125 C45.1915625 10.89828125 44.5315625 11.55828125 43.8515625 12.23828125 C43.3565625 10.75328125 43.3565625 10.75328125 42.8515625 9.23828125 C40.86907535 8.52121143 38.86740901 7.85537712 36.8515625 7.23828125 C36.1915625 6.57828125 35.5315625 5.91828125 34.8515625 5.23828125 C34.1915625 5.56828125 33.5315625 5.89828125 32.8515625 6.23828125 C32.8515625 5.57828125 32.8515625 4.91828125 32.8515625 4.23828125 C19.88494442 3.00461516 6.86307832 2.69499614 -6.1484375 2.23828125 C-6.1484375 7.84828125 -6.1484375 13.45828125 -6.1484375 19.23828125 C-6.4784375 19.23828125 -6.8084375 19.23828125 -7.1484375 19.23828125 C-7.3422586 16.25939999 -7.52878852 13.28037879 -7.7109375 10.30078125 C-7.76701172 9.45064453 -7.82308594 8.60050781 -7.88085938 7.72460938 C-7.95336914 6.5112793 -7.95336914 6.5112793 -8.02734375 5.2734375 C-8.0744751 4.52457275 -8.12160645 3.77570801 -8.17016602 3.00415039 C-8.11686252 -1.32780695 -3.25687543 0.03417183 0 0 Z " fill="#40556C" transform="translate(692.1484375,339.76171875)"/>
<path d="M0 0 C1.8871875 -0.02126953 1.8871875 -0.02126953 3.8125 -0.04296875 C7 0.1875 7 0.1875 9 2.1875 C6.0365593 5.48021189 4.41858811 7.03409034 -0.0703125 7.51953125 C-3.06063476 7.50185795 -6.01785889 7.4046462 -9 7.1875 C-9 5.2075 -9 3.2275 -9 1.1875 C-6.02958551 -0.29770725 -3.30235553 0.0169178 0 0 Z " fill="#40556C" transform="translate(590,365.8125)"/>
<path d="M0 0 C0.33 0 0.66 0 1 0 C1 8.25 1 16.5 1 25 C4.403125 25.0309375 4.403125 25.0309375 7.875 25.0625 C9.78925781 25.07990234 9.78925781 25.07990234 11.7421875 25.09765625 C14.88664652 25.23176569 14.88664652 25.23176569 17 24 C17.33 18.06 17.66 12.12 18 6 C18.33 6 18.66 6 19 6 C19.05790353 9.29159316 19.09356261 12.58305603 19.125 15.875 C19.14175781 16.81214844 19.15851562 17.74929688 19.17578125 18.71484375 C19.18222656 19.61074219 19.18867187 20.50664062 19.1953125 21.4296875 C19.20578613 22.25710449 19.21625977 23.08452148 19.22705078 23.93701172 C19 26 19 26 17 28 C14.10867823 28.17179052 11.32557935 28.2322947 8.4375 28.1875 C7.64408203 28.18685547 6.85066406 28.18621094 6.03320312 28.18554688 C0.14025522 28.14025522 0.14025522 28.14025522 -1 27 C-1.4432097 17.97937905 -0.83531074 8.97959051 0 0 Z " fill="#40556C" transform="translate(563,383)"/>
<path d="M0 0 C0.33 0 0.66 0 1 0 C1.33 8.91 1.66 17.82 2 27 C13.4715658 27.68516016 13.4715658 27.68516016 18 26 C18.73323796 23.98491642 18.73323796 23.98491642 19 22 C19.125 24.875 19.125 24.875 19 28 C17 30 17 30 13.12109375 30.23046875 C11.55983524 30.22647576 9.99857586 30.21171261 8.4375 30.1875 C7.64408203 30.18685547 6.85066406 30.18621094 6.03320312 30.18554688 C0.14025522 30.14025522 0.14025522 30.14025522 -1 29 C-1.09977024 27.10888327 -1.13080672 25.21405814 -1.1328125 23.3203125 C-1.13410156 22.16402344 -1.13539063 21.00773437 -1.13671875 19.81640625 C-1.13285156 18.59824219 -1.12898438 17.38007813 -1.125 16.125 C-1.12886719 14.91457031 -1.13273437 13.70414062 -1.13671875 12.45703125 C-1.13542969 11.29816406 -1.13414062 10.13929688 -1.1328125 8.9453125 C-1.13168457 7.87812988 -1.13055664 6.81094727 -1.12939453 5.71142578 C-1 3 -1 3 0 0 Z " fill="#40556C" transform="translate(513,381)"/>
<path d="M0 0 C0.33 0.66 0.66 1.32 1 2 C1.66 2.33 2.32 2.66 3 3 C2.67 3.99 2.34 4.98 2 6 C-1.3 6 -4.6 6 -8 6 C-8 8.64 -8 11.28 -8 14 C-7.01 14.33 -6.02 14.66 -5 15 C-6.32 15 -7.64 15 -9 15 C-9 18.63 -9 22.26 -9 26 C-7.68 26.66 -6.36 27.32 -5 28 C-5.99 28.33 -6.98 28.66 -8 29 C-8.33 31.97 -8.66 34.94 -9 38 C-9.33 38 -9.66 38 -10 38 C-10 26.78 -10 15.56 -10 4 C-7.36 3.67 -4.72 3.34 -2 3 C-1.34 2.67 -0.68 2.34 0 2 C0 1.34 0 0.68 0 0 Z " fill="#40556C" transform="translate(712,353)"/>
<path d="M0 0 C0.66 0 1.32 0 2 0 C3.46478234 4.26118498 2.69462205 7.18571569 1 11.1953125 C-0.58050186 14.04762444 -1.92294775 14.92972096 -5 16 C-9.82539578 16.70463266 -13.09904983 16.45047509 -17.5 14.25 C-19.93806165 12.05574452 -20.77069943 11.21020798 -21 8 C-20.34 7.67 -19.68 7.34 -19 7 C-18.8453125 7.9590625 -18.8453125 7.9590625 -18.6875 8.9375 C-18.460625 9.618125 -18.23375 10.29875 -18 11 C-17.01 11.33 -16.02 11.66 -15 12 C-14.67 12.33 -14.34 12.66 -14 13 C-10.94615297 13.43360911 -8.05105505 13.45952843 -5 13 C-1.60614619 10.28491695 -0.81159977 7.84777196 -0.25 3.6875 C-0.1675 2.470625 -0.085 1.25375 0 0 Z " fill="#40556C" transform="translate(774,394)"/>
<path d="M0 0 C3.96 0 7.92 0 12 0 C11 5 11 5 10 6 C8.31391034 6.07205511 6.62499341 6.08386068 4.9375 6.0625 C4.01839844 6.05347656 3.09929688 6.04445313 2.15234375 6.03515625 C1.44207031 6.02355469 0.73179687 6.01195312 0 6 C-1.125 2.25 -1.125 2.25 0 0 Z " fill="#40556C" transform="translate(534,366)"/>
<path d="M0 0 C3.4375 2 3.4375 2 6 4 C5.01 4.495 5.01 4.495 4 5 C3.46375 4.67 2.9275 4.34 2.375 4 C-1.25926697 2.46978233 -4.1452525 3.35754208 -8 4 C-7.67 4.66 -7.34 5.32 -7 6 C-7.639375 6.103125 -8.27875 6.20625 -8.9375 6.3125 C-9.618125 6.539375 -10.29875 6.76625 -11 7 C-11.33 7.99 -11.66 8.98 -12 10 C-12.66 10 -13.32 10 -14 10 C-14 10.66 -14 11.32 -14 12 C-14.66 12 -15.32 12 -16 12 C-14.72232235 7.00544191 -12.87088216 4.38702189 -9 1 C-5.89046621 -0.5547669 -3.43733239 -0.28644437 0 0 Z " fill="#40556C" transform="translate(768,386)"/>
<path d="M0 0 C1.51400391 0.01740234 1.51400391 0.01740234 3.05859375 0.03515625 C4.07050781 0.04417969 5.08242188 0.05320312 6.125 0.0625 C7.29869141 0.07990234 7.29869141 0.07990234 8.49609375 0.09765625 C8.16609375 0.75765625 7.83609375 1.41765625 7.49609375 2.09765625 C4.52609375 2.09765625 1.55609375 2.09765625 -1.50390625 2.09765625 C-1.50390625 4.73765625 -1.50390625 7.37765625 -1.50390625 10.09765625 C-0.84390625 10.09765625 -0.18390625 10.09765625 0.49609375 10.09765625 C0.49609375 12.07765625 0.49609375 14.05765625 0.49609375 16.09765625 C-0.82390625 16.09765625 -2.14390625 16.09765625 -3.50390625 16.09765625 C-3.5307572 13.61841824 -3.55067172 11.13946785 -3.56640625 8.66015625 C-3.57897461 7.59958008 -3.57897461 7.59958008 -3.59179688 6.51757812 C-3.60044213 4.71072066 -3.55610636 2.90378022 -3.50390625 1.09765625 C-2.50390625 0.09765625 -2.50390625 0.09765625 0 0 Z " fill="#40556C" transform="translate(533.50390625,355.90234375)"/>
<path d="M0 0 C1.65 0.33 3.3 0.66 5 1 C4 4 4 4 3 6 C2.0409375 6.2165625 2.0409375 6.2165625 1.0625 6.4375 C-1.38210855 6.86165035 -1.38210855 6.86165035 -3 10 C-3 10.66 -3 11.32 -3 12 C-4.65 11.67 -6.3 11.34 -8 11 C-7.73911731 7.47808373 -6.75685408 6.78724732 -4 4.375 C-3.01 3.59125 -2.02 2.8075 -1 2 C-0.67 1.34 -0.34 0.68 0 0 Z " fill="#40556C" transform="translate(666,382)"/>
<path d="M0 0 C1.32 0 2.64 0 4 0 C3.125 4.75 3.125 4.75 2 7 C1.34 7 0.68 7 0 7 C0 7.66 0 8.32 0 9 C2.69725519 7.11192137 4.13216429 5.80175356 6 3 C6.38133299 4.9914056 6.71325582 6.99279077 7 9 C6 10 6 10 2.4375 10.0625 C1.303125 10.041875 0.16875 10.02125 -1 10 C-1.02689216 8.52093108 -1.04634621 7.04172517 -1.0625 5.5625 C-1.07410156 4.73878906 -1.08570313 3.91507812 -1.09765625 3.06640625 C-1 1 -1 1 0 0 Z " fill="#40556C" transform="translate(633,368)"/>
<path d="M0 0 C0.66 0.33 1.32 0.66 2 1 C1.67 2.65 1.34 4.3 1 6 C-2.55026526 6 -5.69269365 5.67837981 -9.1875 5.125 C-10.25355469 4.96257812 -11.31960938 4.80015625 -12.41796875 4.6328125 C-13.69607422 4.31957031 -13.69607422 4.31957031 -15 4 C-15.33 3.34 -15.66 2.68 -16 2 C-13.7089095 1.80558632 -11.41709663 1.61966865 -9.125 1.4375 C-7.21074219 1.28087891 -7.21074219 1.28087891 -5.2578125 1.12109375 C-2 1 -2 1 0 2 C0 1.34 0 0.68 0 0 Z " fill="#40556C" transform="translate(598,353)"/>
<path d="M0 0 C3 1 3 1 4 3 C4.66 2.34 5.32 1.68 6 1 C6.061875 1.721875 6.12375 2.44375 6.1875 3.1875 C7.6392976 8.21295325 11.8466635 11.07728172 16 14 C15.67 14.66 15.34 15.32 15 16 C7.78364789 12.94692795 3.5681322 7.75734771 0 1 C0 0.67 0 0.34 0 0 Z " fill="#40556C" transform="translate(616,391)"/>
<path d="M0 0 C0.33 0 0.66 0 1 0 C1 2.31 1 4.62 1 7 C1.99 6.67 2.98 6.34 4 6 C6.33299825 5.96045766 8.66708189 5.95598268 11 6 C7.79989612 7.8133922 4.86716157 8.52213974 1.25 9.125 C0.26515625 9.29257812 -0.7196875 9.46015625 -1.734375 9.6328125 C-2.48203125 9.75398438 -3.2296875 9.87515625 -4 10 C-4 7.03 -4 4.06 -4 1 C-3.34 1.66 -2.68 2.32 -2 3 C-1.34 2.01 -0.68 1.02 0 0 Z " fill="#40556C" transform="translate(751,369)"/>
<path d="M0 0 C5.28 0 10.56 0 16 0 C15.67 0.66 15.34 1.32 15 2 C11.85069107 3.04976964 9.61185544 3.10131595 6.3125 3.0625 C5.31863281 3.05347656 4.32476563 3.04445313 3.30078125 3.03515625 C2.16189453 3.01775391 2.16189453 3.01775391 1 3 C0.67 2.01 0.34 1.02 0 0 Z " fill="#40556C" transform="translate(582,368)"/>
<path d="M0 0 C2.96909598 3.27301919 3.34354794 5.38065762 3.1875 9.75 C3.14689453 11.22726562 3.14689453 11.22726562 3.10546875 12.734375 C3.07066406 13.48203125 3.03585937 14.2296875 3 15 C2.34 15 1.68 15 1 15 C1 16.98 1 18.96 1 21 C0.67 21 0.34 21 0 21 C0 15.39 0 9.78 0 4 C-1.32 4 -2.64 4 -4 4 C-4 3.34 -4 2.68 -4 2 C-2.68 1.34 -1.36 0.68 0 0 Z " fill="#40556C" transform="translate(580,352)"/>
<path d="M0 0 C2.38854824 3.58282235 2.26898802 5.31393033 2.25 9.5625 C2.25515625 10.71878906 2.2603125 11.87507813 2.265625 13.06640625 C2 16 2 16 0 18 C-0.1954625 15.75067773 -0.38108226 13.50049858 -0.5625 11.25 C-0.66691406 9.99703125 -0.77132812 8.7440625 -0.87890625 7.453125 C-0.97876723 4.60547636 -0.90584295 2.65713933 0 0 Z " fill="#40556C" transform="translate(233,373)"/>
<path d="M0 0 C1.65 0 3.3 0 5 0 C3.68 0.33 2.36 0.66 1 1 C1 4.63 1 8.26 1 12 C2.32 12.66 3.64 13.32 5 14 C4.01 14.33 3.02 14.66 2 15 C1.67 17.97 1.34 20.94 1 24 C0.67 24 0.34 24 0 24 C0 16.08 0 8.16 0 0 Z " fill="#40556C" transform="translate(702,367)"/>
<path d="M0 0 C2.64 0 5.28 0 8 0 C8.33 1.32 8.66 2.64 9 4 C8.01 4.66 7.02 5.32 6 6 C5.67 5.01 5.34 4.02 5 3 C4.01 3.66 3.02 4.32 2 5 C1.34 3.35 0.68 1.7 0 0 Z " fill="#40556C" transform="translate(607,378)"/>
<path d="M0 0 C0 3.68072261 -0.73731743 4.19508747 -3.25 6.75 C-3.85328125 7.38421875 -4.4565625 8.0184375 -5.078125 8.671875 C-7 10 -7 10 -9.234375 9.703125 C-10.10835938 9.35507812 -10.10835938 9.35507812 -11 9 C-9.948125 8.1646875 -9.948125 8.1646875 -8.875 7.3125 C-5.88655739 4.90875268 -2.94059762 2.46189568 0 0 Z " fill="#40556C" transform="translate(294,360)"/>
<path d="M0 0 C0.66 0.33 1.32 0.66 2 1 C1.67 1.99 1.34 2.98 1 4 C0.46375 3.608125 -0.0725 3.21625 -0.625 2.8125 C-3.14877712 1.65514584 -3.14877712 1.65514584 -6.125 3.3125 C-7.548125 4.1478125 -7.548125 4.1478125 -9 5 C-9.99 5.495 -9.99 5.495 -11 6 C-8.62122382 0.51051651 -5.81000875 -0.37085162 0 0 Z " fill="#40556C" transform="translate(477,341)"/>
<path d="M0 0 C0.8125 1.625 0.8125 1.625 1 4 C-0.46818136 6.24609835 -2.15852858 8.02378677 -4 10 C-5.125 6.25 -5.125 6.25 -4 4 C-3.34 4 -2.68 4 -2 4 C-1.34 2.68 -0.68 1.36 0 0 Z " fill="#40556C" transform="translate(229,373)"/>
<path d="M0 0 C2.31 0.66 4.62 1.32 7 2 C7 4 7 6 7 8 C4 7 4 7 2.9375 5.125 C2.628125 4.42375 2.31875 3.7225 2 3 C1.34 2.01 0.68 1.02 0 0 Z " fill="#40556C" transform="translate(659,360)"/>
<path d="M0 0 C3.1875 -0.25 3.1875 -0.25 6 0 C6.33 0.99 6.66 1.98 7 3 C3.7 3.33 0.4 3.66 -3 4 C-2.01 2.68 -1.02 1.36 0 0 Z " fill="#40556C" transform="translate(410,339)"/>
<path d="M0 0 C0.66 0.33 1.32 0.66 2 1 C1.67 2.98 1.34 4.96 1 7 C-0.65 7 -2.3 7 -4 7 C-2.92598892 4.08482708 -2.22189824 2.22189824 0 0 Z " fill="#40556C" transform="translate(287,345)"/>
<path d="M0 0 C2.64 0 5.28 0 8 0 C7.67 0.99 7.34 1.98 7 3 C4.69 3 2.38 3 0 3 C0 2.01 0 1.02 0 0 Z " fill="#40556C" transform="translate(535,368)"/>
<path d="M0 0 C0.33 0.66 0.66 1.32 1 2 C-0.65 3.65 -2.3 5.3 -4 7 C-4.99 6.67 -5.98 6.34 -7 6 C-4.74259377 3.66475218 -2.7194239 1.81294927 0 0 Z " fill="#40556C" transform="translate(463,379)"/>
<path d="M0 0 C0.33 0.66 0.66 1.32 1 2 C1.99 1.67 2.98 1.34 4 1 C4 2.98 4 4.96 4 7 C2.68 7 1.36 7 0 7 C0 4.69 0 2.38 0 0 Z " fill="#40556C" transform="translate(530,365)"/>
<path d="M0 0 C2 1.625 2 1.625 4 4 C4.25 7.25 4.25 7.25 4 10 C3.34 10 2.68 10 2 10 C1.34 6.7 0.68 3.4 0 0 Z " fill="#40556C" transform="translate(143,339)"/>
<path d="M0 0 C0.99 0.33 1.98 0.66 3 1 C0.64722731 3.72426311 -1.62496331 4.8141763 -5 6 C-3.63016497 2.83884224 -3.0109362 2.0072908 0 0 Z " fill="#40556C" transform="translate(556,382)"/>
<path d="M0 0 C1.9451 2.91765 2.45276317 4.62537285 3 8 C1.68 8 0.36 8 -1 8 C-1.125 2.25 -1.125 2.25 0 0 Z " fill="#40556C" transform="translate(668,370)"/>
<path d="M0 0 C-1.32 1.32 -2.64 2.64 -4 4 C-4.99 3.67 -5.98 3.34 -7 3 C-6.67 2.01 -6.34 1.02 -6 0 C-3.50907189 -1.24546405 -2.58919267 -0.7767578 0 0 Z " fill="#40556C" transform="translate(135,369)"/>
<path d="M0 0 C0.99 0 1.98 0 3 0 C2.75 2.875 2.75 2.875 2 6 C-0.0625 7.375 -0.0625 7.375 -2 8 C-1.67 7.236875 -1.34 6.47375 -1 5.6875 C0.17436686 3.00930865 0.17436686 3.00930865 0 0 Z " fill="#40556C" transform="translate(297,350)"/>
<path d="M0 0 C0.99 0 1.98 0 3 0 C2.1875 2.4375 2.1875 2.4375 1 5 C0.01 5.33 -0.98 5.66 -2 6 C-2 2 -2 2 0 0 Z " fill="#40556C" transform="translate(724,386)"/>
<path d="M0 0 C1.32 0 2.64 0 4 0 C4 1.32 4 2.64 4 4 C3.34 4 2.68 4 2 4 C1.67 4.66 1.34 5.32 1 6 C0.67 4.02 0.34 2.04 0 0 Z " fill="#40556C" transform="translate(112,378)"/>
<path d="M0 0 C1.65 0 3.3 0 5 0 C5.33 1.65 5.66 3.3 6 5 C5.01 4.67 4.02 4.34 3 4 C2.67 4.66 2.34 5.32 2 6 C1.34 4.02 0.68 2.04 0 0 Z " fill="#40556C" transform="translate(681,361)"/>
<path d="M0 0 C0.33 1.32 0.66 2.64 1 4 C0.34 4 -0.32 4 -1 4 C-1.33 4.99 -1.66 5.98 -2 7 C-4.0625 8.1875 -4.0625 8.1875 -6 9 C-4.47291037 5.56404834 -2.40072955 2.88087546 0 0 Z " fill="#40556C" transform="translate(351,351)"/>
<path d="M0 0 C0.33 0.66 0.66 1.32 1 2 C-0.65 3.98 -2.3 5.96 -4 8 C-4.33 6.68 -4.66 5.36 -5 4 C-4.0409375 3.8453125 -4.0409375 3.8453125 -3.0625 3.6875 C-2.381875 3.460625 -1.70125 3.23375 -1 3 C-0.67 2.01 -0.34 1.02 0 0 Z " fill="#40556C" transform="translate(342,364)"/>
<path d="M0 0 C0.66 0.66 1.32 1.32 2 2 C1.01 3.32 0.02 4.64 -1 6 C-1.99 5.67 -2.98 5.34 -4 5 C-3 2 -3 2 0 0 Z " fill="#40556C" transform="translate(358,361)"/>
<path d="M0 0 C0.66 0.66 1.32 1.32 2 2 C0.35 3.65 -1.3 5.3 -3 7 C-3.66 6.67 -4.32 6.34 -5 6 C-3.86695008 2.60085025 -2.87481525 1.94745549 0 0 Z " fill="#40556C" transform="translate(126,360)"/>
</svg>
